<?xml version="1.0" standalone="no"?>
<!DOCTYPE svg PUBLIC "-//W3C//DTD SVG 1.1//EN" "http://www.w3.org/Graphics/SVG/1.1/DTD/svg11.dtd" >
<svg xmlns="http://www.w3.org/2000/svg">
<metadata>Generated by IcoMoon</metadata>
<defs>
<font id="RiiqoSystem" horiz-adv-x="1024">
<font-face units-per-em="1024" ascent="960" descent="-64" />
<missing-glyph horiz-adv-x="1024" />
<glyph unicode="&#x20;" horiz-adv-x="512" d="" />
<glyph unicode="&#xe900;" glyph-name="RSM_LinesKeywords" horiz-adv-x="939" d="M724.699 476.379c-2.633 16.969-9.362 33.353-19.31 48.859-7.899 11.995-16.677 22.235-26.917 31.013s-20.187 16.091-30.427 21.65c-1.755 0.878-3.511 1.463-5.266 2.341 0 0 0 0 0 0v90.697c0 70.802-57.637 128.146-128.146 128.146h-174.080c-70.802 0-128.146-57.637-128.146-128.146v-445.586c0-70.802 57.637-128.146 128.146-128.146h174.080c70.802 0 128.146 57.637 128.146 128.146v102.107c-4.389-2.341 20.773 10.533 34.231 22.235 18.139 16.091 31.013 33.353 39.205 52.955 6.144 14.629 9.362 28.379 10.24 42.423 0.585 10.825 0 21.358-1.755 31.305zM606.208 312.832v-87.771c0-22.235-8.192-42.13-21.358-57.929h-314.807c-13.166 15.799-21.358 35.986-21.358 57.929v445.879c0 22.235 8.192 42.13 21.358 57.929h314.514c13.166-15.799 21.358-35.986 21.358-57.929v-76.654c-6.144 1.463-12.288 3.511-18.432 4.096-9.070 1.17-18.139 2.341-27.209 2.926-5.266 0.293-10.24 0-16.677-0.585l-4.096-0.585c-5.851-0.585-11.703-0.878-17.847-2.341-14.043-2.633-27.502-7.022-40.375-12.581-18.725-7.899-35.401-19.31-50.322-33.353-13.458-12.873-24.283-28.087-31.598-44.763-6.437-14.336-10.24-29.257-11.118-43.886-1.17-17.847 1.17-35.401 7.022-52.078 6.729-19.895 18.139-37.742 33.938-53.541 6.437-6.437 13.751-11.995 20.773-16.969l4.389-3.511-1.755-7.022c-1.17-5.266-2.341-10.533-4.096-15.506-1.17-3.511-2.633-7.022-4.974-11.41l-14.921-35.694 12.581 4.389c4.681 1.463 45.056 15.799 56.174 23.991 4.974 3.803 9.655 7.899 14.336 12.288 1.17 1.17 2.341 2.048 3.218 2.926 1.755-0.293 3.511-0.585 5.266-0.878l1.755-0.293c7.022-1.17 14.629-2.633 22.235-3.218 16.091-1.463 31.598-0.585 46.811 2.341 4.974 1.17 9.947 2.633 15.214 3.803 0 0 0 0 0 0zM691.346 413.184c-6.729-15.799-17.262-29.842-32.183-43.301-11.118-9.947-24.576-17.847-40.082-24.283-10.24-4.096-21.358-7.314-33.646-9.947-12.581-2.341-25.746-2.926-39.497-2.048-6.437 0.585-12.581 1.755-19.895 2.926-3.803 0.878-7.607 1.463-11.703 2.048-7.314 1.17-12.873-2.926-14.336-4.389-2.341-2.048-4.974-4.389-7.607-7.022-3.511-3.511-7.314-7.022-11.41-9.947-1.463-0.878-2.633-2.048-4.096-2.926 0.878 3.218 1.463 6.144 2.048 9.070l2.341 9.655c2.926 12.873-3.803 19.895-9.070 23.991l-6.729 4.974c-6.437 4.974-12.288 9.362-17.554 14.336-12.581 12.873-21.943 27.209-27.209 43.008-4.681 13.458-6.437 27.209-5.559 41.545 0.878 11.703 3.803 23.406 8.777 34.523 6.144 13.458 14.921 25.746 25.746 36.279 12.581 11.995 26.624 21.358 42.423 28.087 11.118 4.681 22.821 8.485 35.109 10.825 4.681 0.878 9.655 1.463 15.214 1.755l5.851 0.585c2.926 0.293 5.851 0.585 8.485 0.585h2.341c8.485-0.585 17.262-1.755 25.746-2.633 16.677-2.048 33.061-7.607 50.615-17.262 8.485-4.681 16.969-10.533 25.746-18.139 8.192-7.314 15.506-15.506 21.943-25.454 7.899-11.995 13.166-25.161 15.506-38.327 1.17-8.192 1.755-16.677 1.17-25.746-1.17-10.533-3.803-21.065-8.485-32.768zM470.747 460.581c-4.389-4.096-6.729-9.655-6.729-15.799 0-3.218 0.585-6.144 2.048-8.777 1.17-2.633 2.926-4.974 4.974-7.022 2.048-1.755 4.389-3.218 7.022-4.389s5.559-1.755 8.485-1.755c6.437 0 11.703 2.048 16.091 6.437s6.729 9.655 6.729 15.799c0 6.144-2.341 11.41-7.022 15.799-8.777 8.485-22.821 8.485-31.598-0.293zM540.965 460.581c-4.389-4.096-6.729-9.655-6.729-15.799 0-3.218 0.878-6.144 2.048-8.777s2.926-4.974 5.266-7.022c2.048-1.755 4.389-3.218 7.022-4.389 2.926-1.17 5.851-1.755 8.777-1.755 6.144 0 11.703 2.048 16.091 6.437s6.729 9.655 6.729 15.799c0 6.144-2.341 11.41-7.022 15.799-9.655 8.485-23.698 8.485-32.183-0.293zM610.889 460.581c-4.389-4.096-6.729-9.655-6.729-15.799 0-3.218 0.585-6.144 1.755-8.777s2.926-4.974 5.266-7.022c2.048-1.755 4.389-3.218 7.022-4.389s5.559-1.755 8.485-1.755c6.144 0 11.703 2.048 16.091 6.437s6.729 9.655 6.729 15.799c0 6.144-2.341 11.41-7.022 15.799-8.777 8.485-22.821 8.485-31.598-0.293z" />
<glyph unicode="&#xe901;" glyph-name="Slack_Actions" horiz-adv-x="939" d="M563.2 608.914c-2.187 1.42-4.861 2.264-7.732 2.264-5.307 0-9.94-2.883-12.418-7.169l-0.037-0.069-175.543-292.571c-1.349-2.173-2.148-4.809-2.148-7.632 0-5.308 2.827-9.955 7.057-12.519l0.065-0.037c2.152-1.967 4.823-3.401 7.784-4.074l0.116-0.022c5.352 0.033 10.019 2.936 12.543 7.245l0.037 0.069 175.543 292.571c1.836 2.418 2.942 5.479 2.942 8.799 0 5.742-3.308 10.712-8.123 13.106l-0.085 0.038zM608.549 711.607h-278.235c-0.348 0.004-0.759 0.006-1.17 0.006-68.673 0-124.343-55.67-124.343-124.343 0-0.002 0-0.004 0-0.006v0-278.528c0.166-68.708 55.904-124.343 124.635-124.343 0 0 0 0 0 0h279.113c0 0 0 0 0 0 68.731 0 124.469 55.635 124.635 124.327v278.544c0 0 0 0 0 0 0 68.673-55.67 124.343-124.343 124.343-0.103 0-0.206 0-0.308 0h0.016zM703.927 308.736c-0.166-52.55-42.805-95.086-95.378-95.086 0 0 0 0-0.001 0h-278.235c-0.261-0.003-0.569-0.004-0.878-0.004-52.575 0-95.214 42.538-95.378 95.074v278.544c0.166 52.55 42.805 95.086 95.378 95.086 0 0 0 0 0.001 0h279.113c0 0 0 0 0 0 52.573 0 95.211-42.536 95.378-95.070v-0.016z" />
<glyph unicode="&#xe902;" glyph-name="Slack_At" horiz-adv-x="939" d="M469.577 741.742c-162.229 0-293.742-131.513-293.742-293.742s131.513-293.742 293.742-293.742v0c0.237-0.001 0.517-0.001 0.797-0.001 60.996 0 117.597 18.816 164.315 50.961l-0.98-0.638-16.384 23.991c-41.092-27.796-91.753-44.374-146.285-44.374-145.424 0-263.314 117.89-263.314 263.314s117.89 263.314 263.314 263.314c145.253 0 263.036-117.612 263.314-262.8v-0.027c0.008-0.546 0.013-1.191 0.013-1.836 0-30.425-10.118-58.487-27.173-81.004l0.244 0.336c-8.921-9.061-21.321-14.675-35.032-14.675-0.747 0-1.491 0.017-2.23 0.050l0.105-0.004c-1.129-0.071-2.448-0.111-3.776-0.111-17.728 0-33.774 7.2-45.374 18.834l-0.002 0.002c-15.404 20.105-24.684 45.611-24.684 73.284 0 1.803 0.039 3.596 0.117 5.38l-0.009-0.254v111.762h-29.257v-31.89c-23.062 28.44-57.987 46.479-97.127 46.519h-0.007c-0.206 0.001-0.45 0.002-0.694 0.002-69.804 0-126.391-56.587-126.391-126.391s56.587-126.391 126.391-126.391c46.178 0 86.572 24.764 108.625 61.737l0.32 0.579c5.169-13.249 12.399-24.615 21.417-34.295l-0.059 0.064c16.963-18.055 40.993-29.301 67.65-29.301 1.006 0 2.007 0.016 3.005 0.048l-0.146-0.004c0.666-0.020 1.45-0.032 2.236-0.032 22.001 0 41.909 8.961 56.273 23.432l0.005 0.005c21.889 27.496 35.12 62.733 35.12 101.060 0 0.677-0.004 1.353-0.012 2.028l0.001-0.103c0.001 0.261 0.001 0.569 0.001 0.878 0 162.391-131.644 294.034-294.034 294.034-0.103 0-0.206 0-0.31 0h0.016zM469.577 350.866c-53.645 0-97.134 43.488-97.134 97.134s43.488 97.134 97.134 97.134c53.645 0 97.134-43.488 97.134-97.134v0c-0.166-53.579-43.555-96.968-97.118-97.134h-0.016z" />
<glyph unicode="&#xe903;" glyph-name="Slack_Attach" horiz-adv-x="939" d="M688.713 688.786h-203.337v-29.257h204.8c8.079 0 14.629-6.549 14.629-14.629v0-438.857c0-8.079-6.549-14.629-14.629-14.629v0h-351.086c-8.014 0.161-14.468 6.615-14.628 14.613v126.698h-29.257v-125.221c0-24.237 19.648-43.886 43.886-43.886v0h351.086c24.237 0 43.886 19.648 43.886 43.886v0 437.394c0 0.007 0 0.016 0 0.024 0 24.237-19.648 43.886-43.886 43.886-0.514 0-1.027-0.009-1.537-0.026l0.074 0.002zM484.791 514.706h131.365v-29.257h-131.365v29.257zM440.905 424.594h191.049v-29.257h-191.049v29.257zM411.648 338.286h190.171v-29.257h-190.171v29.257zM426.277 503.003v164.425c0.093 1.3 0.146 2.817 0.146 4.347 0 35.71-28.949 64.658-64.658 64.658s-64.658-28.949-64.658-64.658c0-1.529 0.053-3.047 0.158-4.55l-0.011 0.203v-184.027h29.257v184.027c-0.093 0.964-0.146 2.083-0.146 3.215 0 19.552 15.85 35.401 35.401 35.401s35.401-15.85 35.401-35.401c0-1.132-0.053-2.251-0.157-3.356l0.011 0.141v-164.718c0-44.597-36.153-80.75-80.75-80.75s-80.75 36.153-80.75 80.75v0 199.241h-29.257v-198.949c0-60.755 49.252-110.007 110.007-110.007s110.007 49.252 110.007 110.007v0z" />
<glyph unicode="&#xe904;" glyph-name="Slack_Channel" d="M650.679 505.637v29.257h-51.2l20.773 100.059-28.672 6.144-22.235-105.911h-71.68l20.773 100.059-28.672 6.144-21.65-106.496h-65.536v-29.257h59.392l-22.821-109.714h-65.829v-29.257h59.685l-21.943-105.618 28.672-6.144 23.406 111.762h71.68l-21.943-105.618 28.672-6.144 23.406 111.762h71.387v29.257h-65.829l22.821 109.714h57.344zM540.379 395.922h-71.68l22.821 109.714h71.68l-22.821-109.714z" />
<glyph unicode="&#xe905;" glyph-name="Slack_ClosedChannel" d="M628.443 490.13v46.226c0 64.366-52.37 116.443-116.443 116.443s-116.443-52.37-116.443-116.443v-46.226c-32.183-0.293-58.222-26.331-58.222-58.514v-129.902c0-32.183 26.331-58.514 58.514-58.514h232.302c32.183 0 58.514 26.331 58.514 58.514v129.902c0 32.183-26.039 58.222-58.222 58.514zM584.558 490.13h-145.408v45.934c0 40.082 32.475 72.558 72.558 72.558s72.558-32.475 72.558-72.558v-45.934z" />
<glyph unicode="&#xe906;" glyph-name="Slack_Image" horiz-adv-x="939" d="M496.494 519.387c-39.79 0-72.265-32.475-72.265-72.265s32.475-72.265 72.265-72.265 72.265 32.475 72.265 72.265-32.475 72.265-72.265 72.265zM496.494 404.114c-23.698 0-43.008 19.31-43.008 43.008s19.31 43.008 43.008 43.008c23.698 0 43.008-19.31 43.008-43.008s-19.31-43.008-43.008-43.008zM774.437 609.207h-439.15c-24.283 0-43.886-19.602-43.886-43.886v-352.549c0-24.283 19.602-43.886 43.886-43.886h439.15c24.283 0 43.886 19.602 43.886 43.886v352.549c0 24.283-19.602 43.886-43.886 43.886zM774.437 198.144h-439.15c-8.192 0-14.629 6.437-14.629 14.629l110.007 101.23 88.064-84.553 123.758 124.635 145.701-145.701c-1.755-5.851-7.022-10.24-13.751-10.24zM789.065 249.051l-146.871 146.578-124.343-124.928-87.186 83.968-110.299-103.278v313.929c0 8.192 6.437 14.629 14.629 14.629h439.15c8.192 0 14.629-6.437 14.629-14.629v-316.27zM214.455 247.003c-4.096-0.585-7.607 0.585-10.825 2.926s-4.974 5.851-5.559 9.655l-48.274 361.911c-0.585 3.803 0.585 7.607 2.926 10.825s5.851 4.974 9.655 5.559l450.56 59.685c3.803 0.585 7.607-0.585 10.825-2.926s5.266-5.851 5.559-9.655l6.437-48.567 28.965 3.803-6.437 48.567c-1.463 11.703-7.607 21.943-16.969 28.965s-20.773 10.24-32.475 8.777l-450.56-59.685c-11.703-1.463-21.943-7.607-28.965-16.969s-10.24-20.773-8.777-32.475l47.982-361.911c1.463-11.703 7.607-21.943 16.969-28.965 7.607-5.851 16.969-9.070 26.624-9.070 2.048 0 3.803 0 5.851 0.293l41.253 5.559-3.803 28.965-40.96-5.266z" />
<glyph unicode="&#xe907;" glyph-name="Slack_Search" d="M781.166 200.192l-141.605 139.557c35.694 40.375 57.637 93.623 57.637 151.552 0 126.683-102.985 229.376-229.376 229.376s-229.376-102.985-229.376-229.376 102.985-229.376 229.376-229.376c57.929 0 110.592 21.65 150.967 57.051l141.897-139.557c2.926-2.926 6.437-4.096 10.24-4.096s7.607 1.463 10.533 4.389c5.559 5.559 5.559 14.921-0.293 20.48zM467.822 291.182c-110.299 0-200.119 89.819-200.119 200.119s89.819 200.119 200.119 200.119 200.119-89.819 200.119-200.119c0-110.299-89.819-200.119-200.119-200.119z" />
<glyph unicode="&#xe908;" glyph-name="Slack_Send" horiz-adv-x="1815" d="M1502.062 881.006h-1188.718c-72.558 0-131.657-59.099-131.657-131.657v-602.697c0-72.558 59.099-131.657 131.657-131.657h1188.718c72.558 0 131.657 59.099 131.657 131.657v602.697c0 72.558-59.099 131.657-131.657 131.657zM1604.462 146.651c0-56.466-45.934-102.4-102.4-102.4h-1188.718c-56.466 0-102.4 45.934-102.4 102.4v602.697c0 56.466 45.934 102.4 102.4 102.4h1188.718c56.466 0 102.4-45.934 102.4-102.4v-602.697zM490.642 519.973c0 18.725 15.799 31.305 44.471 31.305 31.89 0 65.536-10.825 90.99-34.231l36.864 48.567c-31.013 28.672-71.973 43.593-121.71 43.593-73.435 0-118.491-43.008-118.491-95.086 0-117.614 179.931-79.579 179.931-134.875 0-17.847-17.847-34.523-54.418-34.523-43.008 0-77.239 19.31-99.182 42.13l-35.986-50.615c28.965-29.55 71.973-49.737 131.95-49.737 84.261 0 124.928 43.008 124.928 100.352 0 116.736-179.346 83.383-179.346 133.12zM797.257 524.069c-68.754 0-117.029-52.955-117.029-118.491 0-72.558 52.078-119.077 120.832-119.077 35.109 0 70.802 10.825 93.33 31.305l-26.331 38.327c-14.629-14.043-41.253-22.528-60.27-22.528-38.327 0-61.44 23.991-65.243 52.37h168.229v13.166c-0.293 74.313-46.226 124.928-113.518 124.928zM741.669 426.642c2.926 22.528 18.725 50.030 55.589 50.030 39.205 0 54.418-28.672 55.881-50.030h-111.47zM1073.445 524.069c-36.864 0-64.658-17.847-79.287-35.109v29.55h-59.392v-226.158h59.392v152.137c9.947 13.458 28.087 26.624 51.493 26.624 25.161 0 41.545-10.825 41.545-42.13v-136.631h59.392v159.744c0.293 43.886-23.406 71.973-73.143 71.973zM1342.61 489.545c-17.847 23.113-43.008 34.523-69.632 34.523-57.637 0-100.352-45.056-100.352-119.077 0-75.483 43.008-118.491 100.352-118.491 27.209 0 52.078 12.288 69.632 34.523v-28.965h59.977v312.759h-59.977v-115.273zM1342.61 365.495c-9.947-14.921-31.305-25.746-51.493-25.746-33.646 0-57.051 26.624-57.051 65.536 0 39.205 23.406 66.121 57.051 66.121 20.187 0 41.545-10.825 51.493-25.746v-80.165z" />
<glyph unicode="&#xe909;" glyph-name="Slack_Slackbot" d="M587.191 580.827c-41.545 0-75.191-33.646-75.191-75.191 0 41.545-33.646 75.191-75.191 75.191s-75.191-33.646-75.191-75.191c0-20.773 8.485-39.79 22.235-53.248l128.439-136.923 129.024 137.801c13.166 13.458 21.358 31.89 21.358 52.37-0.293 41.253-33.938 75.191-75.483 75.191z" />
<glyph unicode="&#xe90a;" glyph-name="Slack_Threads" d="M577.829 513.536h-145.993c-11.995 0-21.943-9.947-21.943-21.943s9.947-21.943 21.943-21.943h145.993c11.995 0 21.943 9.947 21.943 21.943s-9.655 21.943-21.943 21.943zM548.864 425.472h-116.736c-11.995 0-21.943-9.947-21.943-21.943s9.947-21.943 21.943-21.943h116.736c11.995 0 21.943 9.947 21.943 21.943s-9.947 21.943-21.943 21.943zM725.285 267.191l-29.842 101.815c10.825 25.454 16.677 52.663 16.677 80.75 0 114.395-93.038 207.141-207.141 207.141s-207.141-93.038-207.141-207.141 93.038-207.141 207.141-207.141c31.305 0 62.318 7.607 90.112 21.065l104.155-24.283c1.755-0.293 3.218-0.585 4.974-0.585 5.851 0 11.703 2.341 15.799 7.022 5.559 5.559 7.607 13.751 5.266 21.358zM597.723 308.151c-1.17 0.293-2.341 0-3.511 0-1.463 0-2.633 0.293-4.096 0-2.048-0.293-3.511-0.878-5.266-1.755-0.878-0.293-1.463-0.293-2.341-0.585-23.698-12.873-50.322-19.602-77.531-19.602-90.112 0-163.255 73.143-163.255 163.255s73.143 163.255 163.255 163.255 163.255-73.143 163.255-163.255c0-24.576-5.266-48.274-15.799-70.217-0.585-0.878-0.585-2.048-0.878-3.218-0.585-1.463-0.878-2.926-1.17-4.681 0-1.755 0.293-3.218 0.293-4.681 0.293-1.17 0-2.048 0.293-3.218l21.358-73.143-74.606 17.847z" />
<glyph unicode="&#xe90b;" glyph-name="Inter_Pause" horiz-adv-x="939" d="M469.577 801.426c-194.853 0-353.426-158.574-353.426-353.426s158.574-353.426 353.426-353.426 353.426 158.574 353.426 353.426-158.574 353.426-353.426 353.426zM469.577 123.831c-178.761 0-324.169 145.408-324.169 324.169s145.115 324.169 324.169 324.169 324.169-145.408 324.169-324.169-145.408-324.169-324.169-324.169zM367.177 567.077h65.829v-238.153h-65.829v238.153zM506.149 567.077h65.829v-238.153h-65.829v238.153z" />
<glyph unicode="&#xe90c;" glyph-name="Inter_Emoji" d="M512 927.492c-264.816 0-479.492-214.676-479.492-479.492s214.676-479.492 479.492-479.492c264.816 0 479.492 214.676 479.492 479.492v0c-0.462 264.631-214.862 479.031-479.448 479.492h-0.044zM512 9.143c-242.374 0-438.857 196.483-438.857 438.857s196.483 438.857 438.857 438.857c242.374 0 438.857-196.483 438.857-438.857v0c-0.462-242.188-196.669-438.396-438.813-438.857h-0.044zM386.844 502.451c25.135 0 45.511 20.376 45.511 45.511s-20.376 45.511-45.511 45.511c-25.135 0-45.511-20.376-45.511-45.511v0c0-25.135 20.376-45.511 45.511-45.511v0zM637.156 502.451c25.135 0 45.511 20.376 45.511 45.511s-20.376 45.511-45.511 45.511v0c-25.135 0-45.511-20.376-45.511-45.511s20.376-45.511 45.511-45.511v0zM512.813 220.444c-0.172 0-0.376-0.001-0.581-0.001-99.871 0-184.688 64.453-215.125 154.032l-0.472 1.6-40.635-12.597c36.727-107.504 136.865-183.432 254.737-183.432 116.21 0 215.183 73.801 252.607 177.092l0.592 1.87-40.635 13.41c-31.626-87.999-113.569-150.146-210.27-151.971l-0.219-0.003z" />
<glyph unicode="&#xe90d;" glyph-name="Inter_Add_Automation" d="M660.724 656.457l-141.816-143.441h-6.908c-37.254 0-67.454-30.2-67.454-67.454s30.2-67.454 67.454-67.454c37.254 0 67.454 30.2 67.454 67.454v0c0.191 1.646 0.3 3.553 0.3 5.486s-0.109 3.84-0.321 5.716l0.021-0.23 140.19 140.19zM512 936.432c-269.305 0-487.619-218.314-487.619-487.619s218.314-487.619 487.619-487.619c269.305 0 487.619 218.314 487.619 487.619v0c0 269.305-218.314 487.619-487.619 487.619v0zM512 71.721c-207.813 0-376.279 168.466-376.279 376.279s168.466 376.279 376.279 376.279c207.813 0 376.279-168.466 376.279-376.279v0c-0.231-207.721-168.559-376.048-376.258-376.279h-0.022z" />
<glyph unicode="&#xe90e;" glyph-name="Inter_AddCampaign" d="M858.616 668.241v208.457l-631.467-178.387h-158.070v-365.714h134.095v-99.556l164.571-215.365 63.39 48.356-146.692 195.048v57.295l576.203-162.54v219.835c57.097 25.058 96.254 81.099 96.254 146.286s-39.157 121.227-95.232 145.885l-1.022 0.401zM203.175 408.584h-58.921v214.959h58.921zM777.752 261.892l-493.308 139.784v228.775l493.308 140.19z" />
<glyph unicode="&#xe90f;" glyph-name="Inter_AddPhones" d="M868.368 498.794h-305.575v305.575h-101.587v-305.575h-305.575v-101.587h305.575v-305.575h101.587v305.575h305.575v101.587z" />
<glyph unicode="&#xe910;" glyph-name="Inter_AddTextBlast" d="M963.048 561.778c-8.397 49.672-26.656 93.921-52.76 132.419l0.747-1.168c-20.975 31.825-44.857 59.323-71.904 83.336l-0.426 0.372c-23.864 21.383-50.481 40.621-78.999 56.913l-2.271 1.195c-46.875 27.014-101.754 46.211-160.203 54.19l-2.336 0.261c-24.381 3.251-48.762 6.095-73.549 7.721-6.751 0.552-14.615 0.867-22.552 0.867s-15.801-0.315-23.579-0.932l1.026 0.066h-11.378c-17.655-0.985-34.099-3.158-50.126-6.471l2.177 0.376c-41.343-8.239-77.797-19.891-112.345-35.077l3.444 1.35c-52.567-23.633-97.508-54.785-135.755-92.682l0.034 0.034c-35.298-33.944-64.045-74.401-84.356-119.479l-0.978-2.426c-16.316-34.571-27.091-74.806-30.012-117.201l-0.058-1.047c-0.567-7.457-0.891-16.151-0.891-24.92 0-41.304 7.174-80.933 20.344-117.708l-0.762 2.437c20.371-55.729 51.425-103.254 90.972-142.173l0.050-0.049c16.814-16.144 34.981-31.217 54.194-44.918l1.476-1 12.19-9.346-4.47-19.098c-3.251-14.222-6.502-28.038-10.971-40.635-4.413-12.28-8.934-22.469-14.077-32.281l0.668 1.398-40.635-95.898 34.133 12.19c58.31 19.101 108.158 40.972 155.422 66.961l-4.666-2.352c13.003 10.159 25.6 21.13 40.635 33.321l8.94 8.127c4.876 0 9.346 0 14.222-2.438h4.47c19.098-3.251 40.635-6.908 59.733-8.533 11.749-1.067 25.412-1.675 39.218-1.675 30.539 0 60.383 2.976 89.258 8.654l-2.914-0.478c39.585 7.301 74.607 17.858 107.887 31.756l-3.455-1.279c49.336 19.896 91.817 46.198 128.955 78.486l-0.549-0.467c44.883 38.404 80.685 86.056 104.658 140.119l0.993 2.509c14.737 33.367 24.488 72.091 27.171 112.746l0.055 1.032c0.14 3.903 0.221 8.489 0.221 13.094 0 24.675-2.298 48.814-6.692 72.214l0.377-2.412zM893.968 480.508c-1.797-32.694-9.396-63.168-21.783-91.043l0.653 1.646c-20.491-46.117-49.814-84.945-86.099-115.84l-0.453-0.376c-30.722-26.587-66.333-48.63-105.125-64.497l-2.557-0.925c-25.785-10.771-56.163-19.912-87.647-25.94l-2.969-0.473c-22.391-4.092-48.16-6.432-74.476-6.432-11.113 0-22.129 0.417-33.033 1.237l1.452-0.088c-20.569 1.958-38.869 4.827-56.795 8.698l3.157-0.571-31.695 5.283c-1.865 0.251-4.022 0.394-6.211 0.394-12.433 0-23.789-4.615-32.447-12.225l0.055 0.047-20.724-18.692c-9.459-9.325-19.531-18.108-30.118-26.254l-0.765-0.565-10.971-7.721c2.032 8.533 4.063 16.66 5.689 24.787l6.502 26.006c1.431 4.836 2.254 10.393 2.254 16.142 0 20.011-9.976 37.692-25.225 48.341l-0.191 0.126-17.879 13.41c-17.343 13.295-32.711 26.602-47.256 40.75l0.119-0.115c-32.046 31.754-57.148 70.456-72.867 113.665l-0.682 2.145c-9.935 27.625-15.678 59.501-15.678 92.718 0 6.695 0.233 13.336 0.692 19.915l-0.050-0.886c2.505 34.221 11.083 65.863 24.665 94.682l-0.69-1.629c17.464 37.958 40.698 70.294 68.97 97.42l0.109 0.104c32.207 30.752 69.85 56.162 111.284 74.591l2.494 0.99c26.93 11.789 58.609 21.886 91.488 28.704l3.191 0.553c11.412 2.141 25.354 3.875 39.512 4.816l1.123 0.060h44.292c23.162 0 46.324-4.47 69.486-7.314 50.963-7.327 96.875-23.622 137.987-47.312l-1.86 0.988c26.2-14.642 48.838-30.934 69.417-49.468l-0.338 0.3c22.41-19.982 41.872-42.544 58.133-67.39l0.788-1.283c19.6-29.306 33.835-63.926 40.399-101.189l0.236-1.617c1.984-14.055 3.117-30.291 3.117-46.791 0-7.698-0.247-15.339-0.732-22.915l0.053 1.033zM384 478.070c0.003-0.208 0.004-0.453 0.004-0.698 0-16.558-7.024-31.476-18.255-41.936l-0.034-0.032c-10.56-10.798-25.276-17.493-41.557-17.493-0.533 0-1.065 0.007-1.595 0.021l0.078-0.002c-8.347 0.030-16.304 1.669-23.587 4.622l0.425-0.152c-14.582 5.54-26.086 16.383-32.36 30.116l-0.148 0.361c-3.336 6.847-5.286 14.897-5.286 23.402 0 0.201 0.001 0.402 0.003 0.603v-0.031c0.275 16.013 7.078 30.385 17.854 40.611l0.025 0.024c11.171 10.524 26.265 16.991 42.87 16.991s31.699-6.467 42.901-17.020l-0.031 0.029c10.864-9.838 17.895-23.735 18.687-39.279l0.006-0.137zM572.546 478.070c-0.23-33.264-27.248-60.141-60.545-60.141-0.143 0-0.287 0-0.43 0.001h0.022c-8.493 0.076-16.582 1.71-24.027 4.628l0.458-0.158c-7.204 2.982-13.392 6.954-18.742 11.829l0.050-0.045c-11.256 10.081-18.485 24.457-19.095 40.529l-0.003 0.106c0.288 16.088 7.259 30.492 18.245 40.598l0.040 0.037c11.068 10.588 26.106 17.105 42.667 17.105s31.599-6.517 42.69-17.127l-0.023 0.022c10.423-9.375 17.346-22.462 18.676-37.164l0.016-0.22zM761.498 478.070c0.003-0.208 0.004-0.453 0.004-0.698 0-16.558-7.024-31.476-18.255-41.936l-0.034-0.032c-10.685-10.798-25.506-17.485-41.889-17.485-0.416 0-0.831 0.004-1.246 0.013l0.062-0.001c-8.347 0.030-16.304 1.669-23.587 4.622l0.425-0.152c-7.333 3.054-13.645 7.020-19.18 11.854l0.081-0.070c-5.63 5.346-10.268 11.672-13.65 18.715l-0.166 0.383c-3.083 6.701-4.882 14.539-4.882 22.796 0 0.271 0.002 0.542 0.006 0.813v-0.041c0.275 16.013 7.078 30.385 17.854 40.611l0.025 0.024c11.171 10.524 26.265 16.991 42.87 16.991s31.699-6.467 42.901-17.020l-0.031 0.029c10.864-9.838 17.895-23.735 18.687-39.279l0.006-0.137z" />
<glyph unicode="&#xe911;" glyph-name="Inter_Ads" d="M1018.717 86.756h-1013.435v722.489h1013.435zM45.917 127.39h932.165v641.219h-932.165zM559.137 588.19h317.359v-40.635h-317.359v40.635zM559.137 468.317h317.359v-40.635h-317.359v40.635zM559.137 348.444h317.359v-40.635h-317.359v40.635zM492.495 265.549h-365.714v365.714h365.714zM167.416 306.184h284.444v284.444h-284.444z" />
<glyph unicode="&#xe912;" glyph-name="Inter_AlertBadge" d="M832.61 127.39l-641.219 641.219h641.219zM263.721 736.914l538.413-535.975v537.194z" />
<glyph unicode="&#xe913;" glyph-name="Inter_All" horiz-adv-x="1378" d="M463.644 215.162l-46.324 128.813h-177.168l-45.511-128.813h-81.27l174.73 465.676h81.27l175.137-465.676zM397.41 409.397l-43.479 126.375c-3.251 8.127-7.721 21.537-13.003 40.635s-9.752 31.695-11.784 40.635c-7.824-34.050-16.481-62.568-26.807-90.272l1.613 4.939-40.635-121.905zM622.121 215.162v464.051h75.581v-399.035h196.267v-65.016zM990.679 215.162v464.051h75.581v-399.035h196.673v-65.016z" />
<glyph unicode="&#xe914;" glyph-name="Inter_Analytics" d="M561.168 907.987h-16.66v-454.705h426.26v15.441c0 9.346 0 18.286 0 27.632-0.226 226.534-183.229 410.249-409.468 411.631l-0.132 0.001zM939.479 486.603h-361.651v388.063c201.586-9.588 361.424-175.247 361.651-378.288v-0.023zM479.492 811.276h-16.66c-0.086 0-0.189 0-0.291 0-227.338 0-411.632-184.294-411.632-411.632s184.294-411.632 411.632-411.632c217.615 0 395.79 168.868 410.632 382.712l0.072 1.288v17.473h-393.752zM838.705 356.165c-22.513-189.419-182.173-334.903-375.813-334.903-208.935 0-378.311 169.376-378.311 378.311 0 203.341 160.426 369.212 361.614 377.949l0.789 0.027v-421.384z" />
<glyph unicode="&#xe915;" glyph-name="Inter_Attach" d="M949.232 694.654c0.002-0.349 0.003-0.762 0.003-1.175 0-56.42-22.997-107.469-60.129-144.284l-188.154-188.154c-37.167-36.961-88.402-59.807-144.974-59.807-70.336 0-132.423 35.316-169.496 89.184l-0.451 0.694-6.095 8.533 57.295 40.635 5.689-8.533c4.978-7.11 10.184-13.348 15.866-19.117l-0.018 0.018c25.146-23.867 59.214-38.546 96.711-38.546s71.566 14.679 96.773 38.604l-0.062-0.058 188.14 188.14c21.965 24.197 35.412 56.476 35.412 91.895 0 75.63-61.31 136.94-136.94 136.94-35.419 0-67.697-13.447-92.008-35.514l0.114 0.102-143.848-147.098-49.168 48.762 144.254 142.222c37.217 37.258 88.653 60.306 145.473 60.306 113.557 0 205.613-92.056 205.613-205.613 0-0.058 0-0.117 0-0.175v0.009zM643.657 497.575l-56.889-40.635-5.689 8.533c-5.055 7.104-10.393 13.345-16.233 19.078l-0.021 0.021c-25.042 23.932-59.055 38.661-96.508 38.661s-71.466-14.73-96.561-38.712l0.053 0.051-188.14-186.514c-26.646-24.519-43.282-59.559-43.282-98.485 0-73.834 59.855-133.689 133.689-133.689 2.217 0 4.422 0.054 6.613 0.161l-0.309-0.012c0.986-0.026 2.147-0.041 3.311-0.041 36.048 0 68.803 14.096 93.055 37.076l-0.061-0.058 144.254 144.254 47.949-47.137-143.848-144.254c-36.661-34.125-85.988-55.070-140.207-55.070-113.781 0-206.019 92.238-206.019 206.019 0 54.118 20.867 103.363 54.994 140.127l-0.119-0.13 191.39 188.14c37.262 37.16 88.684 60.137 145.473 60.137s108.212-22.977 145.478-60.142l-0.005 0.005c8.674-8.648 16.556-18.079 23.537-28.181l0.438-0.67z" />
<glyph unicode="&#xe916;" glyph-name="Inter_Campaign" d="M934.603 521.143c0 0.014 0 0.031 0 0.047 0 61.43-39.741 113.577-94.915 132.136l-0.983 0.287v195.454l-608.305-173.511h-140.597v-325.079h134.502v-113.371l148.317-193.422 30.070 22.756-140.597 186.921v91.429l576.203-162.54v207.238c56.012 18.734 95.765 70.483 96.304 131.593v0.064zM121.905 643.048h101.587v-255.594h-101.587zM798.476 234.26l-535.162 151.568v259.251l535.162 152.381z" />
<glyph unicode="&#xe917;" glyph-name="Inter_CardDesign" d="M214.959 797.46v-593.27h594.083v593.27zM778.565 234.667h-534.756v533.13h534.756zM512 269.206c127.695 0 231.213 103.517 231.213 231.213s-103.517 231.213-231.213 231.213c-127.695 0-231.213-103.517-231.213-231.213v0c0.231-127.602 103.61-230.982 231.19-231.213h0.022zM512 701.156c110.864 0 200.737-89.873 200.737-200.737s-89.873-200.737-200.737-200.737c-110.864 0-200.737 89.873-200.737 200.737v0c-0.001 0.241-0.002 0.527-0.002 0.813 0 110.864 89.873 200.737 200.737 200.737 0 0 0.001 0 0.001 0v0zM214.959 127.797h307.2v-30.476h-307.2v30.476z" />
<glyph unicode="&#xe918;" glyph-name="Inter_Chat_Filled" d="M162.54 785.676v-560.356h539.632l158.476-173.511v733.867zM656.254 397.613h-328.737c-22.442 0-40.635 18.193-40.635 40.635s18.193 40.635 40.635 40.635v0h329.549c22.442 0 40.635-18.193 40.635-40.635s-18.193-40.635-40.635-40.635v0zM656.254 549.181h-328.737c-22.442 0-40.635 18.193-40.635 40.635s18.193 40.635 40.635 40.635v0h329.549c22.442 0 40.635-18.193 40.635-40.635s-18.193-40.635-40.635-40.635v0z" />
<glyph unicode="&#xe919;" glyph-name="Inter_Chat" d="M981.74-46.527l-213.333 234.463h-727.771v754.59h941.105zM81.27 228.571h706.641l153.194-169.041v842.362h-859.835zM752.152 637.359h-533.13c-11.221 0-20.317 9.096-20.317 20.317v0c0 11.221 9.096 20.317 20.317 20.317v0h533.13c11.221 0 20.317-9.096 20.317-20.317v0c0-11.221-9.096-20.317-20.317-20.317v0zM752.152 464.66h-533.13c-11.221 0-20.317 9.096-20.317 20.317v0c0 11.221 9.096 20.317 20.317 20.317v0h533.13c11.221 0 20.317-9.096 20.317-20.317v0c0-11.221-9.096-20.317-20.317-20.317v0z" />
<glyph unicode="&#xe91a;" glyph-name="Inter_Credit" d="M512 925.46c-263.694 0-477.46-213.766-477.46-477.46s213.766-477.46 477.46-477.46c263.694 0 477.46 213.766 477.46 477.46v0c-0.231 263.601-213.859 477.229-477.438 477.46h-0.022zM512 11.175c-241.252 0-436.825 195.573-436.825 436.825s195.573 436.825 436.825 436.825c241.252 0 436.825-195.573 436.825-436.825v0c-0.231-241.159-195.666-436.594-436.803-436.825h-0.022zM512 850.286c-222.176 0-402.286-180.109-402.286-402.286s180.109-402.286 402.286-402.286c222.176 0 402.286 180.109 402.286 402.286v0c-0.231 222.083-180.202 402.054-402.263 402.286h-0.022zM512 78.222c-201.978 0-365.714 163.736-365.714 365.714s163.736 365.714 365.714 365.714c201.978 0 365.714-163.736 365.714-365.714v0c-2.508-200.551-164.995-362.326-365.584-363.682l-0.131-0.001zM589.206 453.689c-15.92 8.708-34.495 16.573-53.888 22.578l-2.188 0.584v103.213c26.521-2.004 51.106-7.942 73.961-17.247l-1.631 0.587 12.19 30.883c-24.954 10.312-53.885 16.655-84.195 17.466l-0.325 0.007v43.479h-30.476v-43.479c-24.449-1.667-46.54-10.577-64.463-24.576l0.26 0.195c-14.674-11.713-23.993-29.599-23.993-49.661 0-0.541 0.007-1.081 0.020-1.619l-0.002 0.080c-0.032-0.813-0.050-1.767-0.050-2.725 0-19.353 7.433-36.969 19.601-50.15l-0.046 0.050c18.94-16.695 42.051-29.12 67.552-35.521l1.121-0.238v-104.838c-16.85 0.277-33.075 2.335-48.682 5.994l1.546-0.305c-17.32 3.556-32.545 8.463-46.999 14.804l1.488-0.582v-36.978c11.811-5.363 25.515-9.355 39.871-11.293l0.764-0.084c15.624-2.82 33.619-4.445 51.99-4.47h0.023v-52.825h30.476v55.263c25.929 1.813 49.302 11.474 68.096 26.596l-0.236-0.184c14.948 12.388 24.398 30.957 24.398 51.734 0 0.527-0.006 1.052-0.018 1.576l0.001-0.078c0.032 0.761 0.049 1.655 0.049 2.552 0 12.238-3.339 23.695-9.156 33.511l0.167-0.305c-7.002 10.708-16.133 19.45-26.849 25.8l-0.376 0.206zM502.654 487.010c-14.446 4.511-26.926 11.609-37.508 20.829l0.124-0.106c-6.578 7.195-10.609 16.816-10.609 27.379 0 0.661 0.016 1.318 0.047 1.97l-0.004-0.092c-0.004 0.208-0.007 0.452-0.007 0.698 0 10.591 4.711 20.081 12.152 26.489l0.046 0.038c9.775 8.080 22.021 13.504 35.451 15.007l0.308 0.028zM533.13 345.194v92.648c15.63-4.486 29.204-11.744 40.832-21.287l-0.197 0.157c6.562-6.548 10.622-15.601 10.622-25.602 0-0.714-0.021-1.423-0.062-2.127l0.005 0.097c0.406-24.381-15.441-38.603-51.2-43.886z" />
<glyph unicode="&#xe91b;" glyph-name="Inter_Customer_Add" horiz-adv-x="1058" d="M558.011 644.284c24.332-103.094-39.516-206.393-142.61-230.726s-206.393 39.516-230.726 142.61c-24.332 103.094 39.516 206.393 142.61 230.726s206.393-39.516 230.726-142.61zM365.714 323.251c-2.708 0.047-5.902 0.074-9.103 0.074-132.432 0-254.127-45.974-349.994-122.834l1.103 0.855v-186.514h741.181v162.54c-97.981 90.474-229.448 145.958-373.874 145.958-3.275 0-6.542-0.029-9.803-0.085l0.49 0.007zM1049.6 732.038h-151.162v151.162h-50.387v-151.162h-151.162v-49.981h151.162v-151.162h50.387v151.162h151.162v49.981z" />
<glyph unicode="&#xe91c;" glyph-name="Inter_Customer_Filled" d="M731.821 744.192c29.797-126.246-48.391-252.744-174.637-282.541s-252.744 48.391-282.541 174.637c-29.797 126.246 48.391 252.744 174.637 282.541s252.744-48.391 282.541-174.637zM496.965 350.476c-2.624 0.036-5.721 0.057-8.823 0.057-163.237 0-313.156-57.022-430.925-152.234l1.297 1.015v-228.775h906.971v203.175c-119.778 109.676-280.028 176.878-455.974 176.878-4.412 0-8.813-0.042-13.205-0.126l0.658 0.010z" />
<glyph unicode="&#xe91d;" glyph-name="Inter_DefaultView" d="M224.711 486.197h256.406v256.406h-256.406zM255.187 712.127h195.454v-195.454h-195.454zM542.883 742.603v-256.406h256.406v256.406zM768.813 516.673h-195.454v195.454h195.454zM224.711 153.397h256.406v256.406h-256.406zM255.187 379.327h195.454v-195.454h-195.454zM542.883 153.397h256.406v256.406h-256.406zM573.359 379.327h195.454v-195.454h-195.454z" />
<glyph unicode="&#xe91e;" glyph-name="Inter_Delete_Filled" horiz-adv-x="1083" d="M717.613 756.825c-10.565 62.171-57.702 136.94-121.905 136.94h-108.089c-64.61 0.406-112.152-74.362-121.905-136.94h-187.733v-47.949h54.857l43.886-707.048h528.254l43.886 707.048h54.857v47.949zM487.619 845.41h109.714c29.663 0 60.952-45.917 70.298-88.178h-252.749c9.752 40.229 41.041 88.178 72.737 88.178zM438.857 306.59h-40.635v281.194h40.635zM563.606 199.721h-40.635v388.063h40.635zM688.356 306.59h-40.635v281.194h40.635z" />
<glyph unicode="&#xe91f;" glyph-name="Inter_Delete" d="M871.619 761.295h-187.327c-10.565 62.171-57.702 136.94-121.905 136.94h-110.121c-62.984 0-110.121-74.768-121.905-136.94h-186.108v-48.356h55.263l44.292-707.048h528.254l43.886 707.048h55.263zM452.267 849.473h111.746c29.663 0 60.546-45.917 70.298-88.178h-252.749c9.752 42.26 40.635 88.178 70.705 88.178zM726.959 54.654h-437.638l-40.635 658.286h518.908zM487.619 591.848h40.635v-388.47h-40.635v388.47zM612.368 591.848h40.635v-281.194h-40.635v281.194zM362.87 591.848h40.635v-281.194h-40.635v281.194z" />
<glyph unicode="&#xe920;" glyph-name="Inter_Duplicate" d="M978.895 914.489h-772.063v-162.54h-162.54v-772.063h772.063v162.54h162.54zM775.721 20.521h-690.794v690.387h690.794v-690.794zM938.26 183.060h-121.905v568.483h-567.263v121.905h690.794z" />
<glyph unicode="&#xe921;" glyph-name="Inter_Edit" d="M854.959 11.987h-767.594v767.594h473.397v40.635h-514.032v-848.863h848.863v514.438h-40.635v-473.803zM934.603 878.73c-11.62 15.21-29.768 24.924-50.184 24.924s-38.564-9.714-50.073-24.772l-0.112-0.152-362.87-362.87v-98.743h97.524l362.87 362.87c15.451 11.608 25.34 29.898 25.34 50.497 0 19.324-8.702 36.615-22.401 48.169l-0.094 0.078z" />
<glyph unicode="&#xe922;" glyph-name="Inter_Email_Filled" horiz-adv-x="1117" d="M1005.714 811.276h-888.686l433.575-401.473 455.111 401.473zM31.289 779.987v-641.219l344.178 322.641-344.178 318.578zM549.384 300.495l-114.184 105.651-342.959-321.422h921.6l-344.178 322.235-120.279-106.463zM730.616 460.597l355.556-331.987v645.283l-355.556-313.295z" />
<glyph unicode="&#xe923;" glyph-name="Inter_Email" horiz-adv-x="1144" d="M44.698 811.276v-726.552h1056.508v726.552zM563.606 354.946l-445.765 418.133h917.943zM420.571 447.187l-339.302-316.546v633.498zM442.514 426.463l119.060-111.746 134.502 117.029 328.737-308.825h-905.752zM718.832 451.657l342.552 305.168v-626.59z" />
<glyph unicode="&#xe924;" glyph-name="Inter_Employee_Filled" horiz-adv-x="1168" d="M15.035 853.13v-810.26h1137.778v810.26zM423.822 666.21c0.121 0 0.263 0.001 0.406 0.001 59.471 0 107.683-48.211 107.683-107.683s-48.211-107.683-107.683-107.683c-59.471 0-107.682 48.211-107.683 107.682v0c0 0 0 0.001 0 0.001 0 59.329 47.98 107.451 107.254 107.682h0.022zM635.124 228.571h-414.476v106.057c53.552 43.049 122.366 69.094 197.263 69.094 1.078 0 2.155-0.005 3.231-0.016l-0.164 0.001c1.395 0.023 3.041 0.035 4.69 0.035 80.832 0 154.449-30.892 209.688-81.514l-0.231 0.209zM874.463 402.489h-183.67v46.73h182.451zM965.892 519.111h-275.098v46.73h273.879z" />
<glyph unicode="&#xe925;" glyph-name="Inter_Export" d="M815.543 612.165v-461.206h-607.086v461.206h36.571v-425.041h534.349v425.041h36.165zM628.216 636.546l-24.381-26.413-73.956 68.267v-323.454h-36.165v323.454l-73.143-68.267-24.787 26.413 116.216 108.495 116.216-108.495z" />
<glyph unicode="&#xe926;" glyph-name="Inter_Facebook_Circle" d="M512 917.333c-259.031-0.231-468.927-210.27-468.927-469.333 0-259.206 210.128-469.333 469.333-469.333 259.063 0 469.101 209.896 469.333 468.904v0.023c-0.231 259.337-210.403 469.508-469.717 469.74h-0.022zM603.022 517.486l-4.47-61.359h-63.39v-214.552h-81.27v214.552h-40.635v61.359h40.635v40.635c-0.281 2.942-0.442 6.362-0.442 9.818 0 19.849 5.291 38.463 14.539 54.508l-0.281-0.529c13.888 19.141 36.185 31.446 61.357 31.446 1.716 0 3.419-0.057 5.107-0.17l-0.229 0.012c3.471 0.161 7.541 0.253 11.631 0.253 23 0 45.32-2.908 66.613-8.377l-1.851 0.403-10.565-63.39c-10.262 3.016-22.104 4.921-34.334 5.278l-0.205 0.005c-16.66 0-31.289-6.095-31.289-22.349v-48.356z" />
<glyph unicode="&#xe927;" glyph-name="Inter_Facebook" d="M315.733 585.752h84.114v81.27c-0.543 5.757-0.852 12.449-0.852 19.212 0 39.242 10.417 76.052 28.637 107.814l-0.559-1.058c27.601 37.322 71.457 61.256 120.903 61.256 3.355 0 6.684-0.11 9.984-0.327l-0.448 0.024c6.066 0.248 13.185 0.389 20.336 0.389 46.327 0 91.271-5.923 134.116-17.052l-3.697 0.815-21.13-121.905c-20.166 5.799-43.438 9.463-67.456 10.15l-0.404 0.009c-32.508 0-61.765-11.784-61.765-44.698v-95.898h133.283l-9.346-121.905h-123.937v-422.197h-157.663v422.197h-84.114z" />
<glyph unicode="&#xe928;" glyph-name="Inter_Forward" d="M948.013 448l-361.244 301.105v-180.825c-9.752 0-19.098 0-28.444 0-0.001 0-0.002 0-0.003 0-252.126 0-456.622-203.926-457.546-455.835v-0.089c0-0.064 0-0.14 0-0.216 0-20.694 1.329-41.077 3.906-61.069l-0.249 2.364c61.205 168.642 219.918 286.997 406.314 287.289h0.035c26.607-0.048 52.596-2.56 77.791-7.319l-2.616 0.411v-186.514z" />
<glyph unicode="&#xe929;" glyph-name="Inter_Fox_Filled" horiz-adv-x="1728" d="M572.952 255.39c27.708 19.847 51.436 42.929 71.334 69.084l0.589 0.808c11.784 26.006 26.819 53.638 58.108 53.638 7.621-0.089 14.871-1.573 21.54-4.206l-0.41 0.143h4.876c8.127 0 13.003 5.689 19.911 10.565-4.063 17.879-13.003 33.321-18.286 30.070s-7.721-14.629-31.695-4.876-40.635-3.657-56.076-40.635-108.902-96.305-114.59-112.559c-2.65-6.436-4.188-13.908-4.188-21.74s1.538-15.303 4.33-22.13l-0.141 0.391c12.737 16.034 27.477 29.741 44.013 41.007l0.686 0.441zM1275.124 426.057c33.321-15.848 26.819-48.356 23.975-74.768s28.851-10.971 28.851-10.971c24.381 91.429-52.825 85.74-52.825 85.74zM1710.324 477.663v0l-3.657 4.876-4.063 3.657-5.283 4.876-4.063 4.47-3.657 4.063-13.003 13.41-5.283 5.689-4.063 4.876-4.47 5.283c-29.663 37.384-57.702 81.27-94.273 119.873v0c-6.502 6.908-13.003 13.816-20.317 20.317v0l-7.721 6.502-16.254 13.816-5.283 4.063-5.689 4.063-18.286 12.19-9.346 6.502-22.756 12.19-6.502 3.251-6.095 2.844-21.537 8.127h-9.752l-6.908 2.438-16.254 4.063-14.222 7.721h-14.222c-28.563 4.272-61.526 6.711-95.060 6.711-49.221 0-97.215-5.256-143.451-15.238l4.453 0.806-13.003-2.844h-17.879l-8.533-2.438h-4.063l-10.159-2.844h-2.438l-12.19-4.063h-3.657l-8.533-2.844h-4.063l-7.721-3.251h-4.47l-8.127-3.251h-3.251l-10.971-4.876h-2.438l-8.533-3.657h-3.657l-7.314-3.657h-3.657l-6.908-3.657h-3.251l-10.159-5.283-8.533-4.876h-3.251l-6.502-3.657h-3.251l-6.095-4.063h-2.844l-7.314-4.876-8.127-5.689h-2.438c-2.162-1.189-4.028-2.537-5.71-4.082l0.021 0.019h-2.844l-4.876-3.251h-2.844l-5.283-4.063-11.378-36.978-5.283-4.063h-2.032l-4.063-3.251h-2.032l-4.063-3.251-5.283-4.47c-10.565-9.346-18.692-16.66-23.568-21.537-32.238-32.783-77.068-53.098-126.642-53.098-27.82 0-54.146 6.397-77.586 17.801l1.054-0.463-31.289 14.222c-141.003 63.39-290.133 251.937-594.083-23.162h49.575c0.293 0.001 0.64 0.002 0.988 0.002 53.22 0 102.682-16.087 143.79-43.663l-0.931 0.588h2.844c63.797-51.606 258.438-173.511 462.019-59.327 0 0 83.708 34.133 103.619-66.641 0-5.689 2.032-10.971 2.438-15.848v0 0 0 0 0 0 0 0 0 0 0 0 0 0 0h-30.883c-28.851 9.752-40.635-4.063-59.733-42.667s-121.905-103.619-132.063-137.346c0 0 0-2.844 0-4.063-6.908-23.568 17.067-44.698 50.794-30.476 40.635 17.879 125.968 156.444 165.384 144.66 240.152-70.705 276.724 94.273 217.397 183.67-0.056 0.366-0.088 0.789-0.088 1.219s0.032 0.853 0.093 1.266l-0.006-0.047v-16.66c0 6.095 0 6.908 7.721 3.657h2.032l2.438-2.438 2.844-3.251 2.438-2.844 2.032-2.438 2.032-2.844c0.713-0.942 1.388-2.006 1.972-3.125l0.060-0.126c0.877-1.869 1.825-3.469 2.906-4.966l-0.062 0.090 2.438-4.47v-7.721c-0.077-0.61-0.121-1.316-0.121-2.032s0.044-1.422 0.13-2.115l-0.008 0.083v-4.47c0-2.438 0-4.47 0-6.908 216.584 89.397 342.959 50.794 346.21-25.194 2.032-58.108-29.663-56.076 28.038-88.178s33.321 29.257 24.787 95.492c-5.283 44.292 0 108.902-118.248 138.971-14.222 3.657-11.784 6.502 0 6.908 29.325-0.794 57.155-6.088 83.184-15.213l-1.914 0.584c25.402-8.5 46.126-25.274 59.46-47.063l0.273-0.48v-4.063l2.438-5.689c2.064-7.178 3.251-15.422 3.251-23.944 0-0.011 0-0.022 0-0.033v0.002c-0.557-4.122-0.875-8.886-0.875-13.725 0-50.484 34.61-92.884 81.397-104.768l0.748-0.161h5.689c18.692 4.063 0 112.152 29.663 121.905 83.708 25.6 32.914 76.8 55.67 59.733 24.673-15.889 54.802-25.331 87.137-25.331 7.387 0 14.659 0.493 21.785 1.447l-0.833-0.091z" />
<glyph unicode="&#xe92a;" glyph-name="Inter_Minimize_Filled" d="M336.457 477.257h351.086v-58.514h-351.086v58.514z" />
<glyph unicode="&#xe92b;" glyph-name="Inter_Fox_Outlined" horiz-adv-x="1367" d="M1308.379 480.475l-4.681 4.096-28.965 31.89c-7.314 9.070-14.336 18.725-21.65 28.379-14.336 19.31-29.257 39.497-47.104 58.807-41.253 44.471-93.33 71.095-152.137 82.798-39.79 7.899-81.92 6.437-122.002 2.048-45.349-4.974-88.357-14.921-130.194-33.061-38.912-16.677-75.191-38.912-108.544-64.951-15.506-11.995-29.257-26.331-44.763-38.034-27.209-20.48-62.318-25.454-95.086-19.017-34.816 7.022-65.243 27.794-94.793 46.226-90.112 56.466-202.167 126.683-392.338-46.226l-36.864-31.89 47.104 6.729 35.109 1.17c28.087-0.878 67.291-6.729 96.841-29.257 27.794-22.528 169.106-125.806 323.584-56.466-7.022-8.192-11.703-18.139-14.921-25.746-5.559-12.581-33.061-35.109-51.493-50.030-19.895-16.091-28.965-23.698-32.183-31.013-6.144-13.458-3.511-34.816 2.926-45.349l4.681-7.607c-3.218-4.681-5.851-9.362-7.022-13.751-0.293-1.463-0.878-3.803-0.293-2.048-3.803-12.581-0.293-26.039 9.362-34.816 7.022-6.144 15.799-9.362 25.746-9.362 6.729 0 14.043 1.463 21.065 4.681 15.506 6.729 33.353 27.209 54.126 51.2 15.799 18.139 45.056 52.078 55.003 52.37 110.299-32.475 156.818 3.511 174.958 27.794 12.288 16.677 18.432 37.742 18.432 59.685l6.729 2.926c58.222 23.991 105.326 33.938 141.312 35.401l38.912-18.725c11.703-5.559 11.703-14.336 9.655-34.816l-0.585-4.389c-1.463-13.751 5.266-20.48 9.362-23.113 4.389-2.926 9.070-4.096 13.751-4.096 4.389 0 8.777 0.878 12.288 2.048 1.17-12.581 10.24-21.065 32.183-33.353 6.729-3.803 24.869-13.751 38.327-4.096 14.629 10.533 10.825 31.305 5.851 59.977-0.293 2.048-0.585 4.096-1.17 6.144 14.921-29.55 40.96-43.008 57.051-45.641l1.463-0.293c0.585 0 0.878 0 1.463 0l2.926-0.293 5.266 0.585c16.969 3.803 17.554 23.406 18.432 48.274 0.293 11.703 1.17 35.986 4.096 40.082 24.283 7.314 39.205 19.017 44.471 35.109 33.646-15.214 69.632-10.24 71.387-9.947l33.061 4.974-30.135 23.991zM582.217 433.079c0 0-1.755-0.585-6.144 1.17s-8.192 2.633-11.995 3.218c5.851 0.878 13.458 1.17 21.065-1.463l-2.926-2.926zM1233.774 495.397c-3.218 2.341-11.703 8.777-20.773 2.926-9.070-5.559-7.314-15.214-6.729-18.432 1.17-6.729 2.926-16.677-25.454-25.454-22.821-7.022-23.991-38.912-24.869-66.999-0.293-5.851-0.585-13.458-1.17-19.31-14.336 5.266-39.205 25.161-38.327 69.339 0 7.607-0.878 14.921-3.511 22.528-0.585 1.755-1.17 3.803-2.048 5.851l-2.048 4.096c-9.070 17.554-26.331 31.305-50.907 40.96-30.135 11.118-61.147 11.703-63.488 11.703-16.091-0.585-20.187-8.485-21.065-14.921-0.878-9.362 4.974-15.799 17.847-19.017 67.584-16.969 70.51-47.689 73.435-77.531 0.293-3.511 0.585-7.022 1.17-10.24 1.17-9.947 2.926-19.602 4.681-28.965 1.755-9.070 3.803-20.773 4.096-28.087-1.463 0.585-3.218 1.463-5.266 2.633-14.336 7.899-17.262 11.118-17.554 11.118 0 0.878 0.585 3.803 1.17 6.437 1.755 7.022 4.389 17.847 3.511 33.646-0.878 20.773-11.703 39.205-30.72 51.2-45.056 28.965-126.098 23.698-223.817-14.043l-9.947 19.602-17.554 19.895-2.633 2.048-2.926 1.755c-11.41 6.437-19.017 1.755-21.65-0.585-2.048-1.755-8.485-8.192-4.681-19.31l4.389-8.485c16.677-25.161 23.113-65.243 2.926-92.745-23.113-31.598-74.021-37.449-143.067-17.262-25.746 7.607-53.248-24.283-85.138-61.147-15.214-17.554-34.523-39.497-43.593-43.593-7.899-3.511-13.458-2.341-15.799-0.293-0.878 0.585-1.755 2.048-0.878 4.389l0.878 3.803c2.048 7.899 27.209 29.257 42.13 42.13 22.821 19.31 44.471 37.742 51.785 54.418 8.777 19.602 13.458 24.283 18.725 24.283 2.048 0 4.096-0.585 6.437-1.463 1.463-0.585 3.218-0.878 6.144-1.463l4.974-0.585h4.974l7.899 1.17 3.803 1.17 2.926 0.878 29.55 19.602-1.17 7.899c-0.585 3.803-1.17 7.899-2.048 12.288-5.559 27.502-17.554 46.226-35.986 56.174-27.209 14.629-57.344 2.926-60.27 1.463-148.626-83.675-289.646 19.895-315.977 41.253l-2.341 1.755c-32.475 24.869-75.776 32.183-107.666 33.938 154.77 124.343 245.467 67.291 326.217 16.677 18.432-11.41 35.694-22.235 53.248-31.013 8.192-4.096 15.799-7.314 23.406-10.533l3.511-1.17c78.409-30.72 132.535 5.266 158.281 29.842 62.318 59.977 140.142 100.352 225.573 113.518 86.601 13.458 178.469 10.533 250.149-46.226 28.965-22.821 50.907-52.663 72.558-82.213 7.314-9.947 14.629-19.895 22.528-29.842l13.458-16.091c-10.24 3.218-21.65 7.314-31.305 14.629z" />
<glyph unicode="&#xe92c;" glyph-name="Inter_HangUp" horiz-adv-x="1113" d="M93.054 540.648c8.495 9.926 17.124 18.94 26.223 27.456l0.189 0.175c16.353 14.514 34.416 27.923 53.598 39.685l1.665 0.95c37.054 23.787 79.823 43.463 125.296 56.816l3.517 0.885c28.541 8.561 63.313 16.089 98.897 21.087l3.909 0.45c30.883 4.47 63.39 7.314 96.711 8.94s62.578 0 93.867 0c53.414-0.811 105.041-5.952 155.275-15.088l-5.738 0.866c53.783-8.923 101.971-23.917 147.039-44.548l-3.597 1.475c34.135-15.286 63.56-33.643 90.086-55.406l-0.689 0.548c15.886-13.075 29.998-27.186 42.65-42.544l0.423-0.529c16.639-19.385 31.028-41.444 42.311-65.261l0.762-1.787c9.524-19.459 17.127-42.057 21.67-65.743l0.273-1.711c3.122-15.819 4.908-34.008 4.908-52.614 0-1.503-0.012-3.004-0.035-4.501l0.003 0.226c0-13.003 0-25.6 0-38.197v-13.816c0.222-2.306 0.349-4.986 0.349-7.696 0-17.752-5.447-34.232-14.76-47.86l0.188 0.292-4.876-6.908-3.657-4.063h-2.438l-7.721-6.095c-11.511-7.958-25.255-13.558-40.103-15.782l-0.531-0.065c-10.436-1.482-22.491-2.327-34.743-2.327s-24.306 0.846-36.108 2.482l1.365-0.155c-24.381 3.251-48.762 6.908-72.737 10.971-24.619 3.583-46.808 11.291-66.811 22.446l0.983-0.503c-31.060 15.43-52.838 45.447-56.447 80.839l-0.036 0.431c0 8.127 0 16.66 0 25.194s0 8.94 0 13.41c0 12.597 0 25.6 0 38.197v13.003c0.142 1.36 0.223 2.939 0.223 4.537 0 9.68-2.969 18.666-8.046 26.099l0.103-0.159c-5.285 7.193-11.933 13.062-19.601 17.315l-0.31 0.158c-15.385 8.479-33.264 14.855-52.204 18.138l-1.027 0.147c-27.57 5.17-59.288 8.127-91.696 8.127-0.192 0-0.383 0-0.575 0h0.030c-6.305 0.198-13.72 0.31-21.162 0.31-26.611 0-52.886-1.441-78.75-4.25l3.201 0.282c-28.907-2.247-55.699-8.464-80.776-18.132l1.945 0.659c-13.514-4.547-24.993-12.096-34.086-21.892l-0.047-0.051c-6.371-7.541-10.324-17.306-10.564-27.987l-0.001-0.051c0-4.876 0-9.752 0-14.222v-40.635c0-14.222 0-26.413 0-40.635-0.764-19.826-7.188-38.012-17.69-53.156l0.217 0.331c-10.761-14.225-24.345-25.73-39.98-33.825l-0.655-0.308c-17.966-9.773-38.818-17.259-60.865-21.336l-1.306-0.201c-17.067-3.251-34.133-5.689-51.2-8.533l-17.473-2.844c-14.866-2.823-32.115-4.585-49.722-4.873l-0.259-0.003c-1.169-0.039-2.542-0.062-3.921-0.062-19.238 0-37.456 4.369-53.715 12.169l0.747-0.323-10.159 5.689-11.378 10.565c-12.214 15.282-19.783 34.746-20.315 55.958l-0.002 0.118c0 6.095 0 11.784 0 17.879v24.787c0 8.127 0 16.254 0 24.381-0.003 0.478-0.005 1.044-0.005 1.61 0 28.388 4.159 55.804 11.9 81.673l-0.517-2.013c10.227 34.553 25.214 64.683 44.5 91.515l-0.615-0.899c2.844 6.095 8.533 13.003 14.629 20.317z" />
<glyph unicode="&#xe92d;" glyph-name="Inter_Heart_Filled" d="M510.375 90.006c-123.137 76.409-228.343 167.522-317.383 272.751l-1.601 1.941c-38.715 44.232-62.329 102.534-62.329 166.352 0 17.779 1.833 35.131 5.32 51.875l-0.286-1.643c14.775 78.734 73.328 140.685 148.939 160.199l1.41 0.309c18.961 6.235 40.785 9.83 63.449 9.83 58.916 0 112.156-24.299 150.246-63.422l0.045-0.047c4.295-4.851 8.434-10.152 12.238-15.7l0.359-0.554c32.597 36.312 75.6 62.682 124.304 74.429l1.664 0.339c12.539 2.588 26.95 4.069 41.707 4.069 119.167 0 215.771-96.604 215.771-215.771 0-3.718-0.094-7.414-0.28-11.086l0.021 0.516c-6.442-73.379-37.617-138.462-85.027-187.838l0.1 0.105c-86.697-94.131-184.836-175.729-292.722-243.188l-5.945-3.466z" />
<glyph unicode="&#xe92e;" glyph-name="Inter_Help" d="M512 938.87c-271.1 0-490.87-219.77-490.87-490.87s219.77-490.87 490.87-490.87c271.1 0 490.87 219.77 490.87 490.87v0c-0.231 271.007-219.863 490.639-490.848 490.87h-0.022zM512-2.235c-248.658 0-450.235 201.577-450.235 450.235s201.577 450.235 450.235 450.235c248.658 0 450.235-201.577 450.235-450.235v0c-0.231-248.564-201.67-450.003-450.212-450.235h-0.023zM515.251 286.273c-0.404 0.017-0.878 0.027-1.354 0.027-10.106 0-19.187-4.392-25.437-11.372l-0.029-0.033c-6.293-6.675-10.161-15.696-10.161-25.621 0-0.135 0.001-0.271 0.002-0.406v0.021c-0.001-0.090-0.001-0.197-0.001-0.304 0-9.822 3.872-18.739 10.172-25.309l-0.012 0.013c6.867-7.020 16.436-11.372 27.022-11.372s20.155 4.352 27.016 11.365l0.007 0.007c6.288 6.557 10.16 15.475 10.16 25.296 0 0.107 0 0.213-0.001 0.32v-0.016c0.001 0.114 0.002 0.25 0.002 0.385 0 9.925-3.868 18.947-10.178 25.64l0.017-0.019c-6.347 7.021-15.488 11.414-25.655 11.414-0.552 0-1.102-0.013-1.648-0.039l0.077 0.003zM609.524 682.057c-11.45 9.908-24.967 17.793-39.778 22.905l-0.857 0.257c-15.154 5.154-32.609 8.129-50.76 8.129-0.298 0-0.595-0.001-0.892-0.002h0.046c-0.021 0-0.046 0-0.070 0-17.968 0-35.276-2.824-51.505-8.051l1.188 0.331c-15.584-5.388-29.069-12.977-40.885-22.545l0.25 0.196c-12.158-10.072-22.316-22.043-30.139-35.536l-0.337-0.63c-7.815-13.972-13.515-30.259-16.153-47.552l-0.101-0.803 52.013-6.502c3.016 21.679 13.015 40.606 27.612 54.838l0.020 0.019c14.762 12.906 34.213 20.777 55.503 20.777 1.059 0 2.114-0.019 3.163-0.058l-0.152 0.004c0.627 0.017 1.365 0.027 2.105 0.027 21.723 0 41.456-8.523 56.037-22.408l-0.033 0.032c14.083-13.866 22.809-33.138 22.809-54.448 0-1.001-0.019-1.998-0.057-2.99l0.004 0.143c0.010-0.463 0.016-1.008 0.016-1.555 0-12.795-3.163-24.852-8.749-35.431l0.199 0.414c-5.863-11.452-12.623-21.326-20.457-30.231l0.139 0.161c-8.3-9.566-17.068-18.205-26.464-26.122l-0.355-0.291c-9.346-8.533-18.286-17.067-26.819-26.006-7.773-8.598-14.766-18.179-20.7-28.449l-0.43-0.808c-5.374-9.566-8.54-20.997-8.54-33.167 0-0.34 0.002-0.679 0.007-1.018l-0.001 0.051v-57.295h49.575v35.352c-0.005 0.345-0.007 0.753-0.007 1.162 0 14.308 3.147 27.881 8.786 40.064l-0.245-0.591c5.824 11.639 12.731 21.662 20.824 30.589l-0.101-0.113c8.234 9.084 16.998 17.332 26.374 24.849l0.445 0.345c10.012 8.006 18.813 16.807 26.562 26.487l0.257 0.332c8.418 9.912 15.516 21.311 20.8 33.67l0.33 0.87c6.343 15.009 10.068 32.454 10.159 50.758v0.035c0.017 0.762 0.026 1.659 0.026 2.559 0 17.875-3.747 34.875-10.499 50.257l0.315-0.804c-7.285 15.164-17.598 27.819-30.239 37.614l-0.237 0.177z" />
<glyph unicode="&#xe92f;" glyph-name="Inter_Hide" horiz-adv-x="1295" d="M1246.679 457.752v2.438c-2.306 7.628-6.228 14.176-11.391 19.518l0.013-0.013c-11.784 12.19-23.162 24.787-34.946 37.384-57.376 65.234-120.202 123.161-188.57 174.059l-3.227 2.297 172.698 140.597c6.973 5.635 11.395 14.187 11.395 23.771 0 16.841-13.652 30.493-30.493 30.493-7.256 0-13.921-2.535-19.156-6.767l0.058 0.045-188.952-151.162c-83.983 57.252-186.809 92.837-297.7 96.685l-0.967 0.027h-10.971c-241.778 0-452.673-205.613-543.289-308.825-11.378-12.597-23.162-25.194-34.946-37.384-5.15-5.328-9.072-11.877-11.29-19.168l-0.088-0.337v-13.816c0.314-11.514 4.896-21.9 12.212-29.687l-0.022 0.024 18.286-19.098 35.352-37.79 10.565-10.565c49.242-53.258 102.384-101.375 159.507-144.499l3.033-2.193-174.73-141.816c-6.833-5.631-11.155-14.095-11.155-23.569 0-16.753 13.518-30.349 30.242-30.475h0.012c0.042 0 0.093 0 0.143 0 7.176 0 13.78 2.447 19.023 6.553l-0.068-0.051 188.546 151.162c84.105-57.344 187.041-93.054 298.059-97.088l1.014-0.029h10.159c220.241 0 414.476 170.667 516.063 279.568 3.855 3.253 7.312 6.71 10.459 10.437l0.106 0.129 35.759 37.79c5.689 6.502 12.19 12.597 17.879 19.098 7.264 7.821 11.934 18.141 12.591 29.536l0.006 0.127v3.657zM491.276 448.406c1.179 85.558 68.284 155.069 152.748 160.080l0.446 0.021h10.971c37.593-2.339 71.289-17.347 97.26-40.761l-0.142 0.126-243.81-194.235c-11.022 21.094-17.488 46.074-17.488 72.564 0 0.775 0.006 1.549 0.017 2.321l-0.001-0.117zM653.816 287.898h-10.971c-37.457 2.367-71.014 17.373-96.847 40.756l0.136-0.121 243.81 193.829c11.399-21.068 18.152-46.099 18.286-72.695v-0.041c-0.284-86.116-67.495-156.444-152.325-161.704l-0.463-0.023z" />
<glyph unicode="&#xe930;" glyph-name="Inter_History" horiz-adv-x="1086" d="M871.213 400.051c2.945 3.059 4.787 7.198 4.876 11.767v0.017c0 9.201-7.459 16.66-16.66 16.66h-294.197v294.197c0 9.201-7.459 16.66-16.66 16.66s-16.66-7.459-16.66-16.66v0-327.517h327.517c0.154-0.005 0.334-0.009 0.515-0.009 4.441 0 8.444 1.875 11.261 4.876l0.008 0.008zM604.241 919.365c-257.631-0.405-466.94-206.723-472.17-463.156l-0.008-0.488-91.429 89.803c-3.614 3.359-8.474 5.42-13.816 5.42s-10.202-2.061-13.829-5.432l0.013 0.012c-3.359-3.614-5.42-8.474-5.42-13.816s2.061-10.202 5.432-13.829l-0.012 0.013 137.346-136.94 136.94 136.94c3.515 3.527 5.689 8.394 5.689 13.768 0 0.017 0 0.034 0 0.050v-0.003c-0.033 5.384-2.198 10.255-5.692 13.819l0.003-0.003c-3.511 3.424-8.315 5.536-13.613 5.536s-10.102-2.112-13.617-5.54l0.004 0.004-87.365-88.99c5.208 234.077 196.195 421.84 431.036 421.84 238.11 0 431.137-193.026 431.137-431.137s-193.026-431.137-431.137-431.137c-112.045 0-214.106 42.741-290.771 112.808l0.332-0.299c-3.737 3.59-8.823 5.801-14.425 5.801-11.507 0-20.836-9.329-20.836-20.836 0-5.905 2.457-11.237 6.404-15.028l0.007-0.007c83.819-77.088 196.128-124.343 319.474-124.343 261.001 0 472.584 211.583 472.584 472.584 0 260.888-211.399 472.4-472.244 472.584h-0.017z" />
<glyph unicode="&#xe931;" glyph-name="Inter_Image_Small" d="M56.483 794.21v-690.794h911.035v690.794zM886.248 184.686h-748.495v528.254h748.495zM357.587 572.749c0-34.785-28.199-62.984-62.984-62.984s-62.984 28.199-62.984 62.984c0 34.785 28.199 62.984 62.984 62.984s62.984-28.199 62.984-62.984zM258.438 260.267h533.943l-99.556 156.038-99.962 156.444-99.556-156.444-21.943-34.133-67.454 105.651-145.473-227.556z" />
<glyph unicode="&#xe932;" glyph-name="Inter_Image" d="M62.171 897.829v-899.657h899.657v899.657zM915.505 39.213h-635.124l477.054 477.054 158.883-158.883zM919.975 410.616l-162.54 162.54-535.162-533.943h-119.060v817.575h817.575zM316.952 716.19c-59.023 0-106.87-47.847-106.87-106.87s47.847-106.87 106.87-106.87c59.023 0 106.87 47.847 106.87 106.87v0c0 0.121 0.001 0.264 0.001 0.407 0 58.798-47.665 106.463-106.463 106.463-0.143 0-0.286 0-0.429-0.001h0.022zM316.952 543.492c-36.348 0.011-65.809 29.48-65.809 65.829 0 36.356 29.472 65.829 65.829 65.829 35.785 0 64.9-28.553 65.807-64.119l0.002-0.084c-0.229-36.264-29.565-65.6-65.807-65.828h-0.022z" />
<glyph unicode="&#xe933;" glyph-name="Inter_Import" d="M815.543 628.419v-460.8h-607.086v460.8h36.571v-424.635h534.349v424.635h36.165zM628.216 446.781l-115.81-108.495-116.622 108.495 24.787 26.413 73.143-67.86v323.048h36.165v-323.048l73.549 67.86 24.787-26.413z" />
<glyph unicode="&#xe934;" glyph-name="Inter_IncomingCall" d="M801.727 254.984c-5.737 13.824-14.158 25.505-24.691 34.862l-0.097 0.084c-8.947 8.722-18.782 16.619-29.328 23.519l-0.742 0.455-10.971 7.314-31.695 21.537c-12.85 8.365-27.711 15.171-43.553 19.635l-1.145 0.276c-6.101 1.559-13.105 2.454-20.317 2.454s-14.217-0.895-20.906-2.58l0.589 0.126c-14.33-2.95-26.764-9.691-36.597-19.123l0.026 0.025c-6.502-6.095-12.597-13.003-19.911-20.724s-9.752-10.971-14.222-16.66l-5.283-6.095-6.502-8.533c-5.3-5.044-12.119-8.537-19.702-9.725l-0.209-0.027c-1.185-0.078-2.569-0.123-3.963-0.123-9.3 0-18.136 1.99-26.104 5.568l0.404-0.162c-19.694 8.758-36.669 19.090-52.118 31.272l0.512-0.389c-18.998 15.662-36.1 31.605-52.19 48.519l-0.229 0.243c-16.646 15.394-31.592 32.145-44.83 50.224l-0.681 0.976c-8.214 10.547-14.849 22.824-19.257 36.117l-0.247 0.861c-1.422 3.969-2.245 8.548-2.245 13.319 0 1.463 0.077 2.908 0.228 4.332l-0.015-0.177c1.506 8.134 5.584 15.13 11.344 20.287l0.034 0.030 6.908 6.502c7.365 6.225 14.004 12.736 20.137 19.703l0.18 0.208c0 2.844 4.47 5.283 6.502 7.721s8.533 9.346 12.19 14.222c9.415 12.511 15.078 28.311 15.078 45.433 0 9.666-1.805 18.911-5.096 27.416l0.177-0.519c-5.974 17.267-14.245 32.222-24.632 45.436l0.251-0.332c-10.971 14.629-22.349 28.444-33.727 40.635-10.834 13.632-23.137 25.418-36.846 35.386l-0.538 0.372c-8.683 6.423-19.118 11.002-30.454 12.943l-0.428 0.061h-19.505l-7.314-2.438c-11.317-4.582-20.851-11.506-28.364-20.223l-0.080-0.095-6.908-7.314c-6.502-6.908-12.597-13.816-19.098-20.317-9.904-10.264-18.876-21.561-26.699-33.67l-0.526-0.87c-8.577-13.756-16.136-29.603-21.859-46.303l-0.49-1.647c-5.884-17.074-9.683-36.794-10.551-57.273l-0.014-0.428c-0.678-6.821-1.064-14.743-1.064-22.756s0.387-15.935 1.142-23.749l-0.078 0.993c3.456-27.761 10.601-53.007 20.998-76.491l-0.681 1.723c15.477-36.77 34.149-68.489 56.407-97.297l-0.737 0.992c23.225-30.874 47.335-58.205 73.387-83.551l0.162-0.157c16.66-16.254 33.727-31.695 51.2-46.73s37.79-30.883 56.889-44.292c18.872-13.747 40.402-27.223 62.858-39.19l2.97-1.445c28.364-15.121 61.242-27.192 95.875-34.511l2.462-0.435c15.309-3.184 32.975-5.098 51.055-5.281l0.145-0.001c4.254-0.296 9.218-0.464 14.222-0.464s9.969 0.168 14.889 0.5l-0.666-0.036c7.8 0.793 14.722 1.939 21.496 3.476l-1.178-0.225c26.361 5.21 49.79 14.524 70.84 27.356l-0.947-0.537c17.72 10.473 32.957 22.734 46.221 36.867l0.103 0.11 12.19 13.41 12.19 13.816 8.533 9.752c9.868 10.827 16.394 24.854 17.858 40.355l0.021 0.28v11.784zM881.778 692.622l-114.59 114.59-133.283-133.283-82.489 82.489 1.625-138.159 1.625-137.752 275.911-3.251-82.083 82.083 133.283 133.283z" />
<glyph unicode="&#xe935;" glyph-name="Inter_Instagram_Circle" d="M602.112 622.49h-179.814c-43.827 0-79.462-35.635-79.462-79.462v-179.814c0-43.827 35.635-79.462 79.462-79.462h179.814c43.827 0 79.462 35.635 79.462 79.462v179.814c0.41 43.827-35.635 79.462-79.462 79.462zM512.41 344.781c-59.392 0-107.725 48.333-107.725 107.725s48.333 107.725 107.725 107.725c59.392 0 107.725-48.333 107.725-107.725s-48.333-107.725-107.725-107.725zM623.821 539.75c-13.926 0-24.986 11.059-24.986 24.986s11.059 24.986 24.986 24.986c13.926 0 24.986-11.059 24.986-24.986s-11.059-24.986-24.986-24.986zM512 921.907c-261.734 0-473.907-212.173-473.907-473.907s212.173-473.907 473.907-473.907 473.907 212.173 473.907 473.907-212.173 473.907-473.907 473.907zM720.077 366.080c0-66.355-53.658-120.013-120.013-120.013h-175.718c-66.355 0-120.013 53.658-120.013 120.013v175.718c0 66.355 53.658 120.013 120.013 120.013h175.718c66.355 0 120.013-53.658 120.013-120.013v-175.718zM512.41 522.957c-38.502 0-70.042-31.13-70.042-70.042 0-38.502 31.13-70.042 70.042-70.042 38.502 0 70.042 31.13 70.042 70.042-0.41 38.502-31.539 70.042-70.042 70.042z" />
<glyph unicode="&#xe936;" glyph-name="Inter_Instagram" d="M685.261 857.6h-346.522c-130.662 0-236.339-105.677-236.339-236.339v-346.522c0-130.662 105.677-236.339 236.339-236.339h346.522c130.662 0 236.339 105.677 236.339 236.339v346.522c0 130.662-105.677 236.339-236.339 236.339zM846.234 268.595c0-86.835-70.451-156.877-156.877-156.877h-354.714c-86.835 0-156.877 70.451-156.877 156.877v354.714c0 86.835 70.451 156.877 156.877 156.877h354.304c86.835 0 156.877-70.451 156.877-156.877v-354.714zM512 658.534c-117.555 0-212.582-95.027-212.582-212.582s95.027-212.582 212.582-212.582c117.555 0 212.582 95.027 212.582 212.582s-95.027 212.582-212.582 212.582zM512 308.326c-76.186 0-137.626 61.85-137.626 137.626 0 76.186 61.85 137.626 137.626 137.626 76.186 0 137.626-61.85 137.626-137.626 0-76.186-61.44-137.626-137.626-137.626zM781.107 666.726c0-27.372-22.189-49.562-49.562-49.562s-49.562 22.189-49.562 49.562c0 27.372 22.189 49.562 49.562 49.562s49.562-22.189 49.562-49.562z" />
<glyph unicode="&#xe937;" glyph-name="Inter_Keypad" d="M373.841 776.33c0-43.089-34.93-78.019-78.019-78.019s-78.019 34.93-78.019 78.019c0 43.089 34.93 78.019 78.019 78.019s78.019-34.93 78.019-78.019zM598.959 776.33c0-43.089-34.93-78.019-78.019-78.019s-78.019 34.93-78.019 78.019c0 43.089 34.93 78.019 78.019 78.019s78.019-34.93 78.019-78.019zM746.057 697.905c43.313 0 78.425 35.112 78.425 78.425s-35.112 78.425-78.425 78.425c-43.313 0-78.425-35.112-78.425-78.425v0c0-43.313 35.112-78.425 78.425-78.425v0zM373.841 549.587c0-43.089-34.93-78.019-78.019-78.019s-78.019 34.93-78.019 78.019c0 43.089 34.93 78.019 78.019 78.019s78.019-34.93 78.019-78.019zM598.959 549.587c0-43.089-34.93-78.019-78.019-78.019s-78.019 34.93-78.019 78.019c0 43.089 34.93 78.019 78.019 78.019s78.019-34.93 78.019-78.019zM746.057 627.606c-0.12 0.001-0.263 0.001-0.405 0.001-43.313 0-78.425-35.112-78.425-78.425s35.112-78.425 78.425-78.425c43.313 0 78.425 35.112 78.425 78.425 0 0.143 0 0.285-0.001 0.427v-0.022c0 43.089-34.93 78.019-78.019 78.019v0zM373.841 322.844c0-43.089-34.93-78.019-78.019-78.019s-78.019 34.93-78.019 78.019c0 43.089 34.93 78.019 78.019 78.019s78.019-34.93 78.019-78.019zM598.959 322.844c0-43.089-34.93-78.019-78.019-78.019s-78.019 34.93-78.019 78.019c0 43.089 34.93 78.019 78.019 78.019s78.019-34.93 78.019-78.019zM746.057 400.863c-0.12 0.001-0.263 0.001-0.405 0.001-43.313 0-78.425-35.112-78.425-78.425s35.112-78.425 78.425-78.425c43.313 0 78.425 35.112 78.425 78.425 0 0.143 0 0.285-0.001 0.427v-0.022c0 43.089-34.93 78.019-78.019 78.019v0zM520.94 174.121c-0.12 0.001-0.263 0.001-0.405 0.001-43.313 0-78.425-35.112-78.425-78.425s35.112-78.425 78.425-78.425c43.313 0 78.425 35.112 78.425 78.425 0 0.143 0 0.285-0.001 0.427v-0.022c-0.229 42.996-35.023 77.79-77.997 78.019h-0.022z" />
<glyph unicode="&#xe938;" glyph-name="Inter_LeftMenu" d="M384 841.752v-256.406h256v256.406zM609.524 615.822h-195.048v195.454h195.048zM384 522.362h256.406v-30.476h-256.406v30.476zM384 147.302h256v256h-256zM414.476 372.825h195.048v-195.048h-195.048zM384 84.724h256.406v-30.476h-256.406v30.476z" />
<glyph unicode="&#xe939;" glyph-name="Inter_LinesCredits" d="M800.102 709.689v176.356l-718.832-176.356h-27.632v-699.733h916.724v699.733zM763.937 838.095v-128.406h-531.505zM94.273 50.59v618.463h835.454v-216.584h-334.019v-185.295h334.019v-216.584zM929.727 302.933h-297.854v113.371h297.854z" />
<glyph unicode="&#xe93a;" glyph-name="Inter_Linkedin_Circle" d="M512 919.365c-259.429-0.001-469.737-210.31-469.737-469.74s210.31-469.74 469.74-469.74c258.858 0 468.813 209.384 469.737 468.026v0.089c0 0.242 0.001 0.528 0.001 0.813 0 259.594-210.211 470.090-469.697 470.552h-0.044zM396.597 277.333h-81.27v257.219h81.27zM355.962 567.060v0c-1.096-0.097-2.372-0.152-3.661-0.152-24.462 0-44.292 19.83-44.292 44.292 0 0.196 0.001 0.392 0.004 0.588v-0.030c0.127 24.815 20.272 44.882 45.104 44.882 1.431 0 2.846-0.067 4.243-0.197l-0.179 0.013c24.686 0 44.698-20.012 44.698-44.698s-20.012-44.698-44.698-44.698v0zM721.676 277.333h-94.679v133.283c0 34.946-14.222 58.514-45.511 58.514-0.034 0-0.075 0-0.116 0-20.2 0-37.326-13.16-43.272-31.373l-0.091-0.322c-1.444-4.662-2.276-10.022-2.276-15.577 0-1.812 0.089-3.604 0.262-5.371l-0.018 0.224v-139.378h-88.99s0 236.089 0 257.219h90.21v-40.635c13.87 26.118 40.9 43.602 72.013 43.602 3.262 0 6.478-0.192 9.64-0.566l-0.383 0.037c57.295 0 102.4-37.384 102.4-117.029z" />
<glyph unicode="&#xe93b;" glyph-name="Inter_Linkedin" d="M284.444 74.565h-158.476v507.53h158.476zM203.175 643.454v0c-2.938-0.349-6.341-0.548-9.79-0.548-48.475 0-87.771 39.297-87.771 87.771 0 0.907 0.014 1.811 0.041 2.711l-0.003-0.132c0 0.014 0 0.030 0 0.046 0 48.924 39.66 88.584 88.584 88.584 3.149 0 6.259-0.164 9.322-0.485l-0.383 0.032c1.79 0.129 3.877 0.203 5.982 0.203 48.699 0 88.178-39.479 88.178-88.178s-39.479-88.178-88.178-88.178c-2.105 0-4.193 0.074-6.261 0.219l0.279-0.016zM918.349 74.565h-179.606v262.502c0 68.673-28.038 115.81-89.803 115.81-39.616-0.203-73.227-25.683-85.546-61.126l-0.193-0.639c-2.839-9.32-4.473-20.032-4.473-31.126 0-3.347 0.149-6.66 0.44-9.932l-0.030 0.423v-274.692h-177.981s2.438 465.27 0 507.53h177.981v-81.27c10.565 34.54 67.454 84.521 158.070 84.521 112.559 0 203.175-73.143 203.175-230.4z" />
<glyph unicode="&#xe93c;" glyph-name="Inter_List" d="M787.505 775.517h-93.46v53.638h-63.797v8.533c-7.068 59.175-56.957 104.613-117.459 104.613-60.358 0-110.153-45.222-117.353-103.633l-0.058-0.574v-8.533h-65.422v-54.044h-93.867c-44.884 0-81.27-36.386-81.27-81.27v0-650.159c0-44.884 36.386-81.27 81.27-81.27v0h551.416c44.884 0 81.27 36.386 81.27 81.27v0 650.159c0 44.884-36.386 81.27-81.27 81.27v0zM365.714 795.022h65.829l-2.032 19.911c-0.013 0.544-0.020 1.186-0.020 1.829 0 46.69 37.85 84.54 84.54 84.54 46.047 0 83.496-36.815 84.519-82.617l0.002-0.095v-23.568h65.422v-70.705h-298.26zM835.86 42.87c-0.23-26.531-21.791-47.949-48.354-47.949-0.001 0-0.001 0-0.002 0h-551.416c-26.482 0-47.949 21.468-47.949 47.949v0 650.159c-0.004 0.242-0.007 0.528-0.007 0.814 0 26.257 21.286 47.543 47.543 47.543 0.145 0 0.291-0.001 0.436-0.002h93.845v-51.2h365.714v51.2h93.46c0.121 0.001 0.265 0.002 0.408 0.002 26.339 0 47.718-21.238 47.947-47.523v-0.022zM312.889 534.552h397.816v-28.444h-397.816v28.444zM312.889 398.019h397.816v-28.851h-397.816v28.851zM312.889 261.486h397.816v-28.851h-397.816v28.851z" />
<glyph unicode="&#xe93d;" glyph-name="Inter_Microphone_Outlined" d="M512 288.711c-95.877 0.231-173.511 78.008-173.511 173.917 0 0 0 0 0 0.001v0 298.667c0 95.828 77.684 173.511 173.511 173.511s173.511-77.684 173.511-173.511v-298.667c0 0 0 0 0 0 0-95.909-77.634-173.686-173.489-173.917h-0.022zM512 894.578c0 0 0 0-0.001 0-73.385 0-132.876-59.491-132.876-132.876 0-0.143 0-0.286 0.001-0.428v0.022-298.667c0-73.385 59.491-132.876 132.876-132.876s132.876 59.491 132.876 132.876v298.667c0 0.121 0.001 0.263 0.001 0.406 0 73.385-59.491 132.876-132.876 132.876 0 0 0 0-0.001 0v0zM759.467 573.562v-98.337c0-136.672-110.795-247.467-247.467-247.467s-247.467 110.795-247.467 247.467v0 98.337h-40.635v-98.337c0-0.084 0-0.184 0-0.283 0-151.883 117.696-276.277 266.86-286.952l0.924-0.053v-135.314h-173.511v-40.635h387.657v40.635h-173.511v135.314c150.045 10.725 267.717 135.051 267.784 286.876v98.749z" />
<glyph unicode="&#xe93e;" glyph-name="Inter_Microphone" d="M512 309.841c84.656 0.231 153.194 68.911 153.194 153.599 0 0 0 0 0 0.001v0 297.854c0 84.607-68.587 153.194-153.194 153.194s-153.194-68.587-153.194-153.194v-298.667c0.46-84.339 68.822-152.558 153.172-152.787h0.022zM744.838 573.562v-101.181c0-128.593-104.245-232.838-232.838-232.838s-232.838 104.245-232.838 232.838v0 101.181h-60.952v-101.181c0.409-151.358 114.897-275.85 261.993-292.047l1.321-0.118v-114.184h-162.54v-60.952h387.657v60.952h-162.54v113.778c147.859 17.107 261.59 141.542 261.689 292.561v101.191z" />
<glyph unicode="&#xe93f;" glyph-name="Inter_Minutes" d="M512 938.057c-270.651 0-490.057-219.406-490.057-490.057s219.406-490.057 490.057-490.057c270.651 0 490.057 219.406 490.057 490.057v0c-0.231 270.558-219.499 489.826-490.034 490.057h-0.023zM512-1.422c-248.209 0-449.422 201.213-449.422 449.422s201.213 449.422 449.422 449.422c248.209 0 449.422-201.213 449.422-449.422v0c-0.231-248.116-201.306-449.191-449.399-449.422h-0.023zM495.321 462.324l222.97 222.97 28.733-28.733-222.97-222.97-28.733 28.733z" />
<glyph unicode="&#xe940;" glyph-name="Inter_New" d="M512 953.498c-0.483 0.002-1.054 0.003-1.625 0.003-279.179 0-505.498-226.319-505.498-505.498s226.319-505.498 505.498-505.498c279.178 0 505.497 226.318 505.498 505.496v0c0 0.001 0 0.002 0 0.003 0 278.608-225.394 504.572-503.785 505.496h-0.088zM670.070 246.044h-54.044l-220.648 338.895h-2.438c3.251-40.635 4.47-75.987 4.47-109.308v-229.587h-43.479v403.911h52.419l220.241-337.676h2.438c0 4.876 0 20.724-2.438 47.949s0 46.324 0 58.108v231.619h44.292z" />
<glyph unicode="&#xe941;" glyph-name="Inter_NewBadge" d="M512 760.076c-172.18-0.231-311.67-139.864-311.67-312.076 0-172.355 139.721-312.076 312.076-312.076s312.076 139.721 312.076 312.076v0c-0.231 172.405-140.046 312.076-312.482 312.076v0zM512 166.4c-155.349 0.231-281.194 126.219-281.194 281.6 0 155.523 126.077 281.6 281.6 281.6s281.6-126.077 281.6-281.6v0c-0.462-155.48-126.494-281.37-281.984-281.6h-0.022zM557.511 443.937c0-6.502 0-15.035 0-26.413s0-17.879 0-19.505v0l-82.895 135.314h-33.727v-170.667h25.194v88.584c0 12.19 0 25.6 0 40.635v7.721l84.114-136.127h34.133v169.854h-25.6z" />
<glyph unicode="&#xe942;" glyph-name="Inter_OutgoingCall" d="M815.949 254.984c-5.737 13.824-14.158 25.505-24.691 34.862l-0.097 0.084c-9.1 8.566-19.057 16.457-29.651 23.462l-0.826 0.513-10.565 7.314-32.102 21.537c-12.728 8.393-27.456 15.2-43.176 19.642l-1.116 0.27c-6.102 1.529-13.107 2.407-20.317 2.407s-14.215-0.878-20.915-2.532l0.597 0.125c-14.195-2.957-26.496-9.699-36.182-19.115l0.017 0.017c-7.029-6.515-13.534-13.277-19.636-20.395l-0.276-0.329c-5.283-5.283-9.752-10.971-14.629-16.66l-4.876-6.095-6.908-8.533c-5.245-5.134-12.093-8.651-19.723-9.731l-0.188-0.022c-1.141-0.072-2.474-0.113-3.816-0.113-9.349 0-18.235 1.986-26.258 5.559l0.411-0.163c-19.694 8.758-36.669 19.090-52.118 31.272l0.512-0.389c-19.178 15.681-36.411 31.626-52.627 48.554l-0.198 0.208c-16.646 15.394-31.592 32.145-44.83 50.224l-0.681 0.976c-8.214 10.547-14.849 22.824-19.257 36.117l-0.247 0.861c-1.366 4.211-2.154 9.056-2.154 14.085 0 1.192 0.044 2.374 0.131 3.544l-0.009-0.156c1.506 8.134 5.584 15.13 11.344 20.287l0.034 0.030 7.314 6.502c7.106 6.303 13.608 12.805 19.704 19.674l0.207 0.237c0 2.844 4.47 5.283 6.502 7.721 4.28 4.332 8.276 8.973 11.942 13.874l0.249 0.348c9.581 12.579 15.349 28.513 15.349 45.794 0 9.531-1.755 18.652-4.959 27.058l0.175-0.522c-6.133 17.273-14.532 32.221-25.032 45.423l0.244-0.318c-10.971 14.629-22.349 28.444-33.727 40.635-10.731 13.731-23.049 25.533-36.849 35.395l-0.535 0.363c-8.683 6.423-19.118 11.002-30.454 12.943l-0.428 0.061h-19.505l-7.314 0.813c-11.419-4.35-21.003-11.319-28.354-20.204l-0.091-0.113-6.908-7.314-19.505-20.317c-9.6-10.234-18.313-21.532-25.877-33.622l-0.535-0.918c-8.788-13.785-16.362-29.651-21.916-46.436l-0.434-1.513c-5.799-16.997-9.719-36.672-10.941-57.075l-0.030-0.627c-0.678-6.821-1.064-14.743-1.064-22.756s0.387-15.935 1.142-23.749l-0.078 0.993c3.906-27.89 11.017-53.090 21.062-76.742l-0.745 1.974c15.477-36.77 34.149-68.489 56.407-97.297l-0.737 0.992c23.379-30.82 47.48-58.143 73.428-83.589l0.121-0.118c16.66-16.254 33.727-31.695 51.2-46.73s38.197-30.883 56.889-44.292c18.88-13.564 40.539-27.038 63.073-39.090l3.162-1.544c28.253-15.192 61.002-27.268 95.524-34.523l2.406-0.423c15.309-3.184 32.975-5.098 51.055-5.281l0.145-0.001c4.254-0.296 9.218-0.464 14.222-0.464s9.969 0.168 14.889 0.5l-0.666-0.036c7.728 0.749 14.652 1.896 21.414 3.465l-1.097-0.214c26.361 5.21 49.79 14.524 70.84 27.356l-0.947-0.537c17.774 10.357 33.025 22.632 46.208 36.851l0.116 0.127c4.47 4.47 8.127 8.94 12.19 13.41l12.19 13.816 8.94 9.752c9.6 10.932 15.959 24.925 17.45 40.342l0.023 0.293v11.784zM680.229 477.257l132.876 133.283 82.489-82.489-1.625 138.159-1.625 137.752-275.911 3.251 82.083-82.083-133.283-133.283 114.997-114.59z" />
<glyph unicode="&#xe943;" glyph-name="Inter_Paperclip" d="M303.949 40.025c-136.148 0.099-246.48 110.492-246.48 246.654 0 68.068 27.573 129.697 72.158 174.326l386.030 386.030c5.428 5.068 12.739 8.179 20.776 8.179 16.832 0 30.476-13.645 30.476-30.476 0-8.038-3.112-15.349-8.196-20.794l0.016 0.018-386.032-386.032c-33.642-33.642-54.45-80.118-54.45-131.454 0-102.672 83.232-185.904 185.904-185.904 51.336 0 97.812 20.808 131.454 54.45v0l455.924 462.832c21.835 21.655 35.352 51.666 35.352 84.836 0 0.032 0 0.064 0 0.097v-0.005c0 0.039 0 0.084 0 0.13 0 32.902-13.531 62.643-35.331 83.964l-0.022 0.021c-21.857 20.959-51.58 33.863-84.317 33.863s-62.46-12.904-84.36-33.904l0.043 0.041-360.838-360.838c-10.608-10.758-17.16-25.541-17.16-41.854 0-32.929 26.694-59.623 59.623-59.623 16.616 0 31.644 6.797 42.457 17.762l0.007 0.007 274.692 275.098c5.621 5.436 13.289 8.786 21.74 8.786s16.118-3.35 21.748-8.794l-0.009 0.008c5.507-5.514 8.913-13.127 8.913-21.537s-3.406-16.023-8.913-21.537v0l-277.537-275.098c-22.346-31.458-58.647-51.736-99.685-51.736-67.326 0-121.905 54.579-121.905 121.905 0 41.037 20.278 77.339 51.36 99.431l0.376 0.254 360.838 361.244c32.726 32.827 77.991 53.139 128 53.139 99.816 0 180.732-80.917 180.732-180.732 0-49.807-20.147-94.908-52.737-127.598l0.005 0.005-455.924-462.832c-44.211-44.672-105.534-72.334-173.319-72.334-0.496 0-0.992 0.001-1.488 0.004h0.076z" />
<glyph unicode="&#xe944;" glyph-name="Inter_Phone_Filled" horiz-adv-x="1016" d="M676.165-23.771c-0.575-0.004-1.254-0.006-1.935-0.006-13.643 0-27.079 0.888-40.253 2.61l1.552-0.166c-24.987 2.987-47.549 7.979-69.23 14.94l2.589-0.718c-48.185 16.097-90.009 37.026-128.187 62.924l1.812-1.159c-30.417 20.79-56.928 41.752-81.912 64.369l0.642-0.573c-23.975 20.724-47.137 43.479-69.892 69.486s-40.635 46.324-61.765 70.705c-30.2 35.895-58.642 75.724-83.826 117.73l-2.32 4.174c-24.67 39.252-45.776 84.471-61.010 132.31l-1.161 4.224c-9.258 30.844-14.988 66.391-15.839 103.145l-0.009 0.474c-0.035 1.728-0.054 3.765-0.054 5.807 0 19.492 1.794 38.565 5.226 57.063l-0.296-1.917c5.489 28.322 14.071 53.495 25.583 76.97l-0.795-1.796c10.488 23.102 22.849 43.014 37.401 61.089l-0.423-0.543c12.325 14.996 25.639 28.31 40.136 40.237l0.499 0.398 30.476 27.225 10.565 8.94c11.238 10.232 24.851 18.064 39.901 22.567l0.733 0.188 9.752 2.438h17.067l9.346-2.032c15.864-3.941 29.579-11.589 40.686-21.99l-0.051 0.047c16.631-15.548 31.027-33.176 42.857-52.542l0.622-1.096c13.41-20.724 26.413-40.635 40.635-62.578 10.82-18.142 19.247-39.203 24.126-61.589l0.255-1.396c2.058-7.606 3.24-16.339 3.24-25.348 0-27.080-10.681-51.665-28.060-69.772l0.033 0.034c-5.777-6.101-11.74-11.807-17.974-17.209l-0.311-0.264-9.752-9.346c-9.020-8.455-18.836-16.336-29.23-23.433l-0.84-0.541-10.565-7.721c-8.663-6.19-15.103-15-18.198-25.26l-0.088-0.34c-0.884-3.97-1.391-8.529-1.391-13.206s0.507-9.237 1.468-13.626l-0.077 0.419c4.402-19.664 11.556-37.045 21.155-52.772l-0.431 0.76c16.558-28.769 34.298-53.629 54.159-76.604l-0.521 0.616c20.998-26.589 42.276-50.314 64.927-72.649l0.089-0.088c18.712-18.708 39.947-34.894 63.15-48.004l1.459-0.758c11.040-6.739 24.249-11.022 38.395-11.775l0.208-0.009c10.778 0.429 20.604 4.18 28.568 10.249l-0.123-0.090c3.83 3.151 7.276 6.339 10.529 9.715l0.036 0.038 7.721 7.314 21.943 20.724c10.565 8.94 19.911 17.067 29.663 24.787 14.27 10.985 31.959 18.204 51.235 19.885l0.372 0.026c2.387 0.167 5.172 0.261 7.98 0.261 15.993 0 31.267-3.080 45.26-8.679l-0.821 0.29c21.644-8.794 40.305-20.148 56.808-33.992l-0.325 0.265c13.41-10.565 26.413-21.943 40.635-33.321l13.41-11.378c13.391-11.332 25.473-23.156 36.656-35.794l0.322-0.371c12.523-14.208 22.053-31.369 27.41-50.284l0.222-0.916 2.032-11.378v-15.441c-3.957-20.767-14.594-38.567-29.55-51.51l-0.113-0.096-13.003-12.19-18.692-16.254-17.879-16.66c-19.711-16.576-42.187-30.852-66.435-41.918l-1.832-0.749c-28.481-13.138-61.545-22.229-96.301-25.507l-1.223-0.093c-10.565 0.406-19.911 0-28.851 0z" />
<glyph unicode="&#xe945;" glyph-name="Inter_Phone" d="M679.822-23.771c-13.483 0.017-26.741 0.903-39.743 2.603l1.546-0.165c-25.35 2.858-48.344 7.859-70.412 14.928l2.552-0.706c-48.33 15.96-90.304 36.902-128.559 62.906l1.779-1.141c-30.417 20.79-56.928 41.752-81.912 64.369l0.642-0.573c-24.381 20.724-47.543 43.479-70.298 69.486s-40.635 46.324-61.765 70.705c-30.2 35.895-58.642 75.724-83.826 117.73l-2.32 4.174c-24.111 39.238-44.693 84.491-59.425 132.308l-1.121 4.226c-9.258 30.844-14.988 66.391-15.839 103.145l-0.009 0.474c-0.026 1.59-0.041 3.465-0.041 5.344 0 19.637 1.641 38.892 4.793 57.633l-0.281-2.024c5.14 28.308 13.174 53.517 23.987 77.191l-0.825-2.016c10.651 23.097 23.139 43.002 37.8 61.075l-0.415-0.529c12.325 14.996 25.639 28.31 40.136 40.237l0.499 0.398 29.257 24.787 10.159 8.94c11.31 10.091 24.893 17.899 39.866 22.55l0.769 0.206 10.971 4.876h16.66l9.346-2.032c15.905-3.786 29.653-11.462 40.669-21.975l-0.034 0.033c17.067-15.443 31.848-32.938 44.089-52.205l0.61-1.027c13.41-20.724 26.413-40.635 40.635-62.578 10.724-18.27 19.024-39.484 23.734-62.017l0.24-1.374c2.058-7.606 3.24-16.339 3.24-25.348 0-27.080-10.681-51.665-28.060-69.772l0.033 0.034c-5.777-6.101-11.74-11.807-17.974-17.209l-0.311-0.264-9.752-9.346c-9.034-8.312-18.843-16.186-29.164-23.377l-0.906-0.598-10.565-7.721c-8.78-6.076-15.262-14.931-18.207-25.276l-0.079-0.324c-0.884-3.97-1.391-8.529-1.391-13.206s0.507-9.237 1.468-13.626l-0.077 0.419c4.189-19.658 11.364-37.067 21.122-52.698l-0.399 0.685c16.529-29.1 34.278-54.229 54.185-77.454l-0.547 0.654c20.967-26.23 42.238-49.69 64.861-71.773l0.155-0.151c18.586-18.721 39.689-34.906 62.769-48.012l1.434-0.749c11.647-6.944 25.585-11.255 40.486-11.78l0.149-0.004c10.68 0.152 20.442 3.96 28.12 10.224l-0.082-0.065c3.795 3.254 7.243 6.572 10.491 10.078l0.074 0.081 7.721 7.314 21.943 20.724c10.565 8.94 19.911 17.067 29.663 24.787 14.27 10.985 31.959 18.204 51.235 19.885l0.372 0.026c2.387 0.167 5.172 0.261 7.98 0.261 15.993 0 31.267-3.080 45.26-8.679l-0.821 0.29c21.644-8.794 40.305-20.148 56.808-33.992l-0.325 0.265c13.41-10.565 26.413-21.943 40.635-33.321l13.41-11.378c13.407-11.192 25.38-23.164 36.209-36.125l0.363-0.447c12.88-13.941 22.582-31.013 27.835-49.937l0.203-0.857 2.032-11.378v-15.441c-4.060-20.863-14.669-38.764-29.565-51.927l-0.099-0.086-13.003-11.784-18.692-16.254-17.879-16.66c-19.711-16.576-42.187-30.852-66.435-41.918l-1.832-0.749c-28.481-13.138-61.545-22.229-96.301-25.507l-1.223-0.093c-11.784 0-19.505-0.406-30.476-0.406zM274.692 878.73h-6.908c-9.407-3.442-17.422-8.712-23.961-15.427l-0.014-0.014-10.159-8.94-30.476-25.194c-13.152-10.822-24.753-22.682-34.98-35.675l-0.372-0.49c-12.034-15.099-22.742-32.181-31.418-50.417l-0.683-1.596c-8.646-18.862-15.559-40.813-19.661-63.738l-0.25-1.684c-2.604-14.762-4.092-31.758-4.092-49.102 0-1.452 0.010-2.901 0.031-4.348l-0.002 0.219c0.666-33.397 5.816-65.332 14.871-95.579l-0.649 2.525c14.793-48.791 33.997-91.218 57.885-130.482l-1.403 2.482c26.125-44.78 52.976-83.283 82.558-119.466l-1.288 1.625c19.098-23.568 40.635-46.73 59.733-68.673s45.917-45.917 68.267-67.454c23.285-20.771 48.739-40.545 75.49-58.538l2.529-1.602c33.299-23.145 71.663-42.45 112.652-55.986l3.158-0.903c17.508-5.773 38.149-10.341 59.42-12.856l1.533-0.147c8.599-1.065 18.552-1.672 28.648-1.672s20.049 0.607 29.826 1.788l-1.178-0.116c31.117 2.507 59.826 10.336 86.056 22.587l-1.536-0.644c22.35 10.16 41.611 22.394 58.909 36.893l-0.395-0.322 16.66 15.441 19.505 17.473 12.19 10.971c8.072 6.512 13.962 15.437 16.587 25.671l0.073 0.335v11.378c-3.837 13.344-10.58 24.82-19.532 34.162l0.028-0.029c-9.881 11.539-20.381 21.911-31.683 31.355l-0.418 0.34-13.41 11.378-40.635 32.914c-13.239 10.663-28.373 19.799-44.663 26.749l-1.255 0.476c-8.445 3.454-18.246 5.459-28.515 5.459-1.834 0-3.653-0.064-5.455-0.19l0.243 0.014c-11.763-0.845-22.382-5.145-31.009-11.879l0.126 0.095c-8.94-6.908-17.473-14.222-26.006-21.943s-15.441-13.816-21.943-20.317l-6.908-6.502c-4.063-4.47-8.533-8.533-13.003-12.597-14.608-12.383-33.671-19.912-54.493-19.912-0.128 0-0.256 0-0.384 0.001h0.020c-21.18 0.755-40.82 6.692-57.893 16.573l0.598-0.319c-28.057 15.886-52.224 34.358-73.551 55.672l0.002-0.002c-24.070 23.137-46.524 47.393-67.508 72.903l-1.165 1.459c-20.72 23.936-39.794 50.517-56.341 78.757l-1.361 2.513c-11.462 18.577-20.199 40.219-24.969 63.311l-0.224 1.298c-1.465 6.596-2.304 14.171-2.304 21.943s0.839 15.347 2.432 22.641l-0.128-0.698c4.973 21.437 17.369 39.393 34.274 51.427l0.266 0.18 10.971 8.127c9.799 6.901 18.274 13.569 26.387 20.642l-0.38-0.325 10.971 10.159c5.574 4.685 10.612 9.466 15.351 14.531l0.091 0.098c10.45 11.154 16.867 26.197 16.867 42.738 0 5.903-0.817 11.615-2.345 17.030l0.106-0.441c-4.226 18.91-11.246 35.621-20.705 50.641l0.388-0.66c-12.19 20.724-25.194 40.635-38.197 60.952-10.621 17.195-22.857 32.016-36.841 44.979l-0.137 0.125c-6.083 7.104-13.894 12.558-22.787 15.731l-0.375 0.117c-0.854 0.11-1.842 0.172-2.844 0.172s-1.99-0.063-2.96-0.184l0.116 0.012h-4.063z" />
<glyph unicode="&#xe946;" glyph-name="Inter_Pinterest_Circle" d="M512 919.365c-259.429-0.001-469.737-210.31-469.737-469.74s210.31-469.74 469.74-469.74c258.858 0 468.813 209.384 469.737 468.026v0.089c0 0.242 0.001 0.528 0.001 0.813 0 259.594-210.211 470.090-469.697 470.552h-0.044zM512 244.825c-0.215-0.001-0.469-0.001-0.724-0.001-20.613 0-40.497 3.12-59.207 8.912l1.416-0.378c8.77 12.585 15.847 27.173 20.455 42.82l0.269 1.066c2.844 9.346 14.629 56.889 14.629 56.889 10.734-15.79 28.613-26.026 48.883-26.026 0.529 0 1.056 0.007 1.582 0.021l-0.078-0.002c66.235 0 110.933 60.546 110.933 141.41-2.744 65.15-56.227 116.928-121.803 116.928-3.039 0-6.051-0.111-9.034-0.33l0.399 0.023c-3.216 0.27-6.96 0.424-10.74 0.424-72.757 0-132.183-57.080-135.939-128.902l-0.014-0.335c-0.265-2.463-0.416-5.319-0.416-8.212 0-30.091 16.354-56.363 40.659-70.411l0.392-0.209c0.974-0.513 2.128-0.814 3.353-0.814 3.609 0 6.608 2.614 7.206 6.053l0.006 0.044c0 3.657 2.844 12.597 4.063 16.254 0.418 1.114 0.659 2.402 0.659 3.746 0 3.171-1.346 6.029-3.497 8.032l-0.007 0.006c-8.635 10.080-13.89 23.276-13.89 37.7 0 1.032 0.027 2.058 0.080 3.077l-0.006-0.142c-0.003 0.262-0.004 0.571-0.004 0.881 0 54.085 43.845 97.93 97.93 97.93 1.288 0 2.569-0.025 3.845-0.074l-0.184 0.006c2.943 0.4 6.344 0.628 9.798 0.628 42.415 0 76.8-34.385 76.8-76.8 0-0.935-0.017-1.867-0.050-2.794l0.004 0.134c0-59.733-26.006-109.714-65.016-109.714-0.469-0.025-1.019-0.039-1.572-0.039-17.729 0-32.102 14.372-32.102 32.102 0 3.051 0.426 6.002 1.221 8.798l-0.055-0.226c7.343 20.573 13.701 45.192 17.926 70.532l0.36 2.611c0.092 0.853 0.145 1.843 0.145 2.845 0 15.485-12.553 28.038-28.038 28.038-0.051 0-0.102 0-0.153 0h0.008c-21.943 0-40.635-22.756-40.635-53.232-0.003-0.24-0.004-0.524-0.004-0.809 0-11.634 2.546-22.673 7.112-32.59l-0.2 0.485s-22.756-95.492-26.413-112.152c-2.595-10.78-4.083-23.158-4.083-35.882 0-4.103 0.155-8.171 0.459-12.196l-0.032 0.536c-73.535 32.541-123.912 104.862-123.912 188.951 0 113.781 92.238 206.019 206.019 206.019s206.019-92.238 206.019-206.019c0-113.781-92.238-206.019-206.019-206.019-0.294 0-0.588 0.001-0.882 0.002h0.045z" />
<glyph unicode="&#xe947;" glyph-name="Inter_Pinterest" d="M512 854.349c-224.215-0.272-405.871-182.097-405.871-406.349 0-165.443 98.872-307.794 240.752-371.186l2.579-1.030c-0.278 5.37-0.436 11.658-0.436 17.984 0 26.723 2.822 52.787 8.185 77.91l-0.435-2.434 51.606 221.867c-8.224 18.373-13.014 39.82-13.014 62.385 0 0.639 0.004 1.277 0.012 1.915l-0.001-0.097c0 60.14 34.946 105.244 78.425 105.244 0.131 0.001 0.285 0.002 0.44 0.002 30.072 0 54.451-24.378 54.451-54.451 0-2.436-0.16-4.835-0.47-7.186l0.030 0.276c-8.798-54.981-21.24-103.556-37.599-150.291l1.84 6.037c-1.234-4.659-1.942-10.007-1.942-15.521 0-34.785 28.199-62.984 62.984-62.984 1.112 0 2.217 0.029 3.315 0.086l-0.154-0.006c76.8 0 128.406 98.743 128.406 216.178 0 88.99-59.733 155.632-168.635 155.632-2.187 0.089-4.753 0.14-7.332 0.14-106.151 0-192.203-86.052-192.203-192.203 0-0.906 0.006-1.811 0.019-2.715l-0.001 0.137c-0.132-2.080-0.207-4.511-0.207-6.96 0-28.308 10.051-54.268 26.778-74.507l-0.158 0.197c4.388-3.75 7.152-9.29 7.152-15.475 0-2.314-0.387-4.538-1.1-6.611l0.043 0.143c0-7.314-6.502-25.6-8.533-32.508-0.992-6.742-6.737-11.859-13.677-11.859-2.436 0-4.724 0.63-6.711 1.737l0.070-0.036c-56.483 23.162-81.27 85.333-81.27 155.225-1.625 116.216 95.492 253.156 288.914 253.156 154.819 0 256.813-112.559 256.813-232.838 0-159.695-88.178-278.756-218.616-278.756-0.851-0.022-1.853-0.035-2.858-0.035-39.83 0-74.997 19.967-96.036 50.438l-0.255 0.39s-23.568-93.46-28.444-111.746c-10.183-33.11-24.007-61.949-41.413-88.207l0.778 1.248c34.171-10.572 73.455-16.661 114.161-16.661 0.294 0 0.588 0 0.881 0.001h-0.046c224.42 0 406.349 181.929 406.349 406.349s-181.929 406.349-406.349 406.349v0z" />
<glyph unicode="&#xe948;" glyph-name="Inter_Play" d="M512 938.87c-271.1 0-490.87-219.77-490.87-490.87s219.77-490.87 490.87-490.87c271.1 0 490.87 219.77 490.87 490.87v0c-0.231 271.007-219.863 490.639-490.848 490.87h-0.022zM512-2.235c-248.658 0-450.235 201.577-450.235 450.235s201.577 450.235 450.235 450.235c248.658 0 450.235-201.577 450.235-450.235v0c-0.231-248.564-201.67-450.003-450.212-450.235h-0.023zM691.2 448l-284.851 168.635v-337.27l284.851 168.635z" />
<glyph unicode="&#xe949;" glyph-name="Inter_Refresh" horiz-adv-x="1067" d="M594.895 919.365c-257.89-0.172-467.525-206.531-472.982-463.135l-0.009-0.509-88.584 89.803c-3.614 3.359-8.474 5.42-13.816 5.42s-10.202-2.061-13.829-5.432l0.013 0.012c-3.544-3.532-5.737-8.418-5.737-13.816s2.193-10.284 5.736-13.815l136.941-136.941 137.346 136.94c2.809 3.356 4.516 7.719 4.516 12.48 0 0.47-0.017 0.936-0.049 1.398l0.004-0.062c0 0.014 0 0.031 0 0.048 0 10.772-8.733 19.505-19.505 19.505-5.398 0-10.284-2.193-13.815-5.736l-88.585-88.991c5.208 234.077 196.195 421.84 431.036 421.84 238.11 0 431.137-193.026 431.137-431.137s-193.026-431.137-431.137-431.137c-112.045 0-214.106 42.741-290.771 112.808l0.332-0.299c-3.617 3.689-8.652 5.976-14.222 5.976s-10.605-2.287-14.219-5.973l-0.003-0.003c-3.712-3.683-6.010-8.786-6.010-14.425s2.298-10.743 6.009-14.424l0.001-0.001c83.99-77.82 196.819-125.562 320.798-125.562 261.001 0 472.584 211.583 472.584 472.584s-211.583 472.584-472.584 472.584c-0.209 0-0.418 0-0.626 0h0.032z" />
<glyph unicode="&#xe94a;" glyph-name="Inter_Reports" d="M841.549 684.495l-224.711 224.711c-3.038 2.979-7.191 4.832-11.776 4.876h-410.828c-9.201 0-16.66-7.459-16.66-16.66v0-898.844c0-9.201 7.459-16.66 16.66-16.66v0h635.53c9.201 0 16.66 7.459 16.66 16.66v674.133c-0.089 4.586-1.931 8.725-4.881 11.79l0.005-0.006zM621.714 857.194l167.822-167.822h-167.822zM812.698 15.238h-601.803v863.492h377.498v-206.019c0-9.201 7.459-16.66 16.66-16.66v0h207.644zM290.133 517.079c0-9.201 7.459-16.66 16.66-16.66v0h410.413c9.201 0 16.66 7.459 16.66 16.66v0c0 9.201-7.459 16.66-16.66 16.66v0h-410.413c-9.201 0-16.66-7.459-16.66-16.66v0zM717.206 412.241h-410.413c-9.201 0-16.66-7.459-16.66-16.66v0c0-9.201 7.459-16.66 16.66-16.66v0h410.413c9.201 0 16.66 7.459 16.66 16.66v0c0 9.201-7.459 16.66-16.66 16.66v0zM717.206 290.337h-410.413c-0.78 0.129-1.678 0.203-2.594 0.203-9.201 0-16.66-7.459-16.66-16.66s7.459-16.66 16.66-16.66c0.916 0 1.814 0.074 2.69 0.216l-0.096-0.013h410.413c0.78-0.129 1.678-0.203 2.594-0.203 9.201 0 16.66 7.459 16.66 16.66s-7.459 16.66-16.66 16.66c-0.916 0-1.814-0.074-2.69-0.216l0.096 0.013zM717.206 168.838h-410.413c-0.78 0.129-1.678 0.203-2.594 0.203-9.201 0-16.66-7.459-16.66-16.66s7.459-16.66 16.66-16.66c0.916 0 1.814 0.074 2.69 0.216l-0.096-0.013h410.413c0.78-0.129 1.678-0.203 2.594-0.203 9.201 0 16.66 7.459 16.66 16.66s-7.459 16.66-16.66 16.66c-0.916 0-1.814-0.074-2.69-0.216l0.096 0.013z" />
<glyph unicode="&#xe94b;" glyph-name="Inter_Reviews" d="M223.898-22.959l47.949 342.146-254.781 234.463 340.114 58.921 143.441 314.108 162.54-304.762 343.365-40.635-239.746-248.686 68.673-338.489-310.857 153.194zM105.244 526.832l209.676-192.203-40.635-281.6 247.467 139.784 256-124.343-56.889 278.756 197.486 203.175-282.413 32.508-132.47 252.343-118.248-258.844z" />
<glyph unicode="&#xe94c;" glyph-name="Inter_Schedule" d="M382.375 175.34c3.262-0.218 7.072-0.342 10.911-0.342 36.243 0 69.902 11.060 97.787 29.989l-0.61-0.39c23.214 18.698 37.942 47.121 37.942 78.984 0 1.948-0.055 3.883-0.164 5.803l0.012-0.266c0.043 1.013 0.067 2.202 0.067 3.396 0 22.354-8.514 42.72-22.477 58.030l0.061-0.068c-17.864 16.996-41.675 27.887-68.007 29.246l-0.26 0.011c23.126 3.967 43.128 15.201 58.051 31.227l0.057 0.062c12.962 15.149 20.851 34.975 20.851 56.644 0 1.658-0.046 3.306-0.137 4.942l0.010-0.227c0.178 2.067 0.279 4.472 0.279 6.901 0 25.556-11.235 48.489-29.034 64.128l-0.096 0.083c-21.745 16.15-49.116 25.854-78.754 25.854-2.886 0-5.751-0.092-8.592-0.273l0.388 0.020c-23.12-0.006-45.335-3.874-66.038-10.992l1.429 0.427c-20.873-6.928-38.959-16.883-54.803-29.529l0.352 0.271 21.943-29.257c14.622 9.968 31.415 18.489 49.278 24.732l1.516 0.461c14.194 4.383 30.511 6.908 47.418 6.908 0.044 0 0.088 0 0.132 0h-0.007c1.061 0.050 2.304 0.078 3.554 0.078 18.433 0 35.433-6.137 49.067-16.479l-0.202 0.147c10.597-9.959 17.197-24.065 17.197-39.712 0-1.326-0.047-2.64-0.141-3.942l0.010 0.175c0.113-1.426 0.177-3.087 0.177-4.763 0-20.434-9.547-38.639-24.423-50.398l-0.135-0.103c-18.125-12.572-40.588-20.085-64.805-20.085-2.218 0-4.422 0.063-6.609 0.187l0.303-0.014h-39.822v-37.384h37.79c72.737 0 109.308-23.162 109.308-69.892s-32.914-77.613-99.149-77.613c-19.083 0.145-37.572 2.358-55.355 6.426l1.717-0.33c-20.049 4.693-37.663 11.254-54.142 19.713l1.317-0.614v-40.635c13.715-7.41 29.611-13.306 46.372-16.859l1.171-0.208c15.46-2.881 33.248-4.529 51.42-4.529 2.066 0 4.126 0.021 6.182 0.064l-0.307-0.005zM662.349 506.514l12.19 11.378c0-19.911-2.032-40.635-2.032-64.203v-273.067h40.635v383.187h-36.571l-99.556-78.425 22.756-30.070zM362.057 763.733c13.464 0.002 24.378 10.917 24.378 24.381s-10.916 24.381-24.381 24.381-24.381-10.916-24.381-24.381c0-0.143 0.001-0.285 0.004-0.428v0.021c0.229-13.289 11.055-23.975 24.378-23.975 0.001 0 0.002 0 0.004 0v0zM661.943 763.733c0.12-0.002 0.261-0.003 0.403-0.003 13.465 0 24.381 10.916 24.381 24.381s-10.916 24.381-24.381 24.381c-13.465 0-24.381-10.916-24.381-24.381 0-0.142 0.001-0.283 0.004-0.424v0.021c0.224-13.15 10.825-23.75 23.953-23.974h0.021zM65.422 894.578v-893.968h893.968v893.968zM918.756 41.244h-812.698v634.311h812.698zM917.943 716.19h-812.698v137.752h812.698z" />
<glyph unicode="&#xe94d;" glyph-name="Inter_Send_Filled" d="M329.143 447.187l-317.765 251.53 1001.244 193.829-416.102-889.092-203.581 341.74 363.683 326.705-427.479-224.711z" />
<glyph unicode="&#xe94e;" glyph-name="Inter_Send_Outline" d="M952.889 819.81l-357.587-763.937-174.73 294.603 310.857 279.975-365.714-193.016-273.067 216.178 860.241 166.197zM1021.968 873.854l-76.8-15.035-945.168-183.263 67.86-53.232 292.978-232.025 23.162 11.784 84.927 44.698-99.556-89.397 16.66-28.038 175.137-293.79 38.603-64.203 31.695 67.86 390.502 834.641z" />
<glyph unicode="&#xe94f;" glyph-name="Inter_SendInfo" horiz-adv-x="1530" d="M446.984 811.276v-726.552h1056.508v726.552zM966.298 354.946l-445.765 418.133h918.349zM823.263 447.187l-335.644-316.546v633.498zM845.613 426.463l119.060-111.746 132.47 117.029 329.143-308.825h-904.127zM1121.93 451.657l340.927 305.168v-626.59zM336.051 569.905h-203.175c-11.221 0-20.317 9.096-20.317 20.317s9.096 20.317 20.317 20.317v0h203.175c11.221 0 20.317-9.096 20.317-20.317s-9.096-20.317-20.317-20.317v0zM336.051 427.683h-138.565c-11.221 0-20.317 9.096-20.317 20.317s9.096 20.317 20.317 20.317v0h138.565c11.221 0 20.317-9.096 20.317-20.317s-9.096-20.317-20.317-20.317v0zM336.051 285.46h-308.013c-11.221 0-20.317 9.096-20.317 20.317s9.096 20.317 20.317 20.317v0h308.013c11.221 0 20.317-9.096 20.317-20.317s-9.096-20.317-20.317-20.317v0z" />
<glyph unicode="&#xe950;" glyph-name="Inter_Settings_Filled" d="M988.241 532.114l-119.060 40.635-16.66 40.635 56.076 112.152c1.31 2.757 2.074 5.991 2.074 9.403 0 5.966-2.338 11.386-6.147 15.394l0.009-0.010-91.835 87.771c-3.593 4.087-8.833 6.652-14.671 6.652-3.573 0-6.922-0.961-9.803-2.639l0.093 0.050-110.933-54.044-40.635 17.473-40.635 119.060c-3.526 8.054-11.204 13.69-20.254 14.219l-0.064 0.003h-128.813c-9.256-0.097-17.13-5.91-20.267-14.072l-0.051-0.15-40.635-119.060-40.635-17.473-110.933 56.076c-2.775 1.561-6.092 2.48-9.624 2.48-5.844 0-11.1-2.518-14.742-6.527l-0.015-0.016-90.616-90.21c-4.011-3.977-6.494-9.49-6.494-15.583 0-3.34 0.746-6.505 2.081-9.339l-0.057 0.134 56.076-112.152-16.66-40.635-118.654-40.635c-8.753-2.556-15.039-10.508-15.039-19.929 0-0.137 0.001-0.273 0.004-0.409v0.020-127.594c-0.008-0.207-0.012-0.451-0.012-0.696 0-9.346 6.311-17.219 14.904-19.588l0.143-0.034 118.654-40.635 16.66-40.635-56.076-111.34c-1.278-2.7-2.024-5.865-2.024-9.205 0-6.093 2.483-11.605 6.492-15.581l0.002-0.001 90.616-90.21c3.734-4.132 9.112-6.717 15.094-6.717 3.391 0 6.589 0.831 9.399 2.3l-0.112-0.053 112.152 55.263 40.635-17.067 40.635-119.060c3.084-8.365 10.986-14.222 20.256-14.222 0.021 0 0.043 0 0.064 0h128.403c9.182 0.326 16.951 6.044 20.262 14.071l0.055 0.151 40.635 119.060 40.635 17.067 111.746-56.076c2.699-1.416 5.896-2.247 9.287-2.247 5.982 0 11.36 2.585 15.078 6.699l0.016 0.018 90.21 92.241c3.8 3.998 6.138 9.418 6.138 15.384 0 3.412-0.765 6.646-2.132 9.539l0.058-0.136-55.263 110.527 16.66 40.635 119.060 40.635c8.771 2.703 15.035 10.736 15.035 20.232 0 0.030 0 0.060 0 0.090v-0.005 128.813c-0.864 9.138-7.217 16.586-15.693 19.060l-0.155 0.039zM511.594 298.463c-82.587 0-149.537 66.95-149.537 149.537s66.95 149.537 149.537 149.537c82.587 0 149.537-66.95 149.537-149.537v0c-0.23-82.494-67.043-149.306-149.515-149.536h-0.022z" />
<glyph unicode="&#xe951;" glyph-name="Inter_Settings" d="M988.241 532.114l-118.654 40.635-17.067 40.635 56.076 111.746c1.412 2.788 2.24 6.079 2.24 9.563 0 5.945-2.409 11.327-6.303 15.224v0l-91.835 90.616c-3.897 3.895-9.279 6.303-15.224 6.303-3.484 0-6.775-0.827-9.687-2.296l0.123 0.056-110.527-56.076-40.635 17.067-40.635 118.654c-2.688 8.542-10.537 14.629-19.807 14.629-0.037 0-0.073 0-0.109 0h-129.213c-0.031 0-0.067 0-0.104 0-9.27 0-17.119-6.087-19.767-14.482l-0.040-0.147-40.635-118.654-40.635-17.067-110.933 56.076c-2.788 1.412-6.079 2.24-9.563 2.24-5.945 0-11.327-2.409-15.224-6.303l-90.616-90.616c-3.895-3.897-6.303-9.279-6.303-15.224 0-3.484 0.827-6.775 2.296-9.687l-0.056 0.123 56.076-111.746-17.067-40.635-118.654-40.635c-8.321-2.613-14.31-10.116-14.628-19.062l-0.001-0.036v-128.406c0-0.031 0-0.067 0-0.104 0-9.27 6.087-17.119 14.482-19.767l0.147-0.040 118.654-40.635 17.067-40.635-56.076-112.559c-1.412-2.788-2.24-6.079-2.24-9.563 0-5.945 2.409-11.327 6.303-15.224l90.616-90.616c3.897-3.895 9.279-6.303 15.224-6.303 3.484 0 6.775 0.827 9.687 2.296l-0.123-0.056 111.746 55.263 40.635-17.067 40.635-118.654c2.688-8.542 10.537-14.629 19.807-14.629 0.037 0 0.073 0 0.109 0h128.4c0.031 0 0.067 0 0.104 0 9.27 0 17.119 6.087 19.767 14.482l0.040 0.147 40.635 118.654 40.635 17.067 111.746-56.076c2.788-1.412 6.079-2.24 9.563-2.24 5.945 0 11.327 2.409 15.224 6.303v0l90.616 92.648c3.895 3.897 6.303 9.279 6.303 15.224 0 3.484-0.827 6.775-2.296 9.687l0.056-0.123-55.263 110.527 17.067 40.635 118.654 40.635c8.542 2.688 14.629 10.537 14.629 19.807 0 0.037 0 0.073 0 0.109v-0.006 129.219c-0.433 9.182-6.779 16.77-15.296 19.065l-0.145 0.033zM960.203 399.238l-113.371-37.79c-5.852-2.183-10.465-6.532-12.945-12.047l-0.058-0.144-24.381-59.327c-1.246-2.556-1.974-5.561-1.974-8.737s0.728-6.18 2.027-8.857l-0.053 0.121 53.638-107.276-68.673-68.673-107.276 53.638c-2.556 1.246-5.561 1.974-8.737 1.974s-6.18-0.728-8.857-2.027l0.121 0.053-59.327-24.381c-5.659-2.538-10.007-7.151-12.139-12.846l-0.052-0.157-37.79-113.371h-97.117l-37.79 113.371c-2.183 5.852-6.532 10.465-12.047 12.945l-0.144 0.058-59.327 24.381c-2.556 1.246-5.561 1.974-8.737 1.974s-6.18-0.728-8.857-2.027l0.121 0.053-107.276-53.638-66.641 68.673 53.638 107.276c1.246 2.556 1.974 5.561 1.974 8.737s-0.728 6.18-2.027 8.857l0.053-0.121-26.006 60.546c-2.538 5.659-7.151 10.007-12.846 12.139l-0.157 0.052-113.371 36.571v97.524l113.371 37.79c5.852 2.183 10.465 6.532 12.945 12.047l0.058 0.144 24.381 59.327c1.246 2.556 1.974 5.561 1.974 8.737s-0.728 6.18-2.027 8.857l0.053-0.121-52.013 107.276 66.641 66.641 107.276-51.606c2.556-1.246 5.561-1.974 8.737-1.974s6.18 0.728 8.857 2.027l-0.121-0.053 59.327 24.381c5.659 2.538 10.007 7.151 12.139 12.846l0.052 0.157 37.79 113.371h97.524l37.79-113.371c2.183-5.852 6.532-10.465 12.047-12.945l0.144-0.058 59.327-24.381c2.556-1.246 5.561-1.974 8.737-1.974s6.18 0.728 8.857 2.027l-0.121-0.053 107.276 51.606 68.673-68.673-53.638-105.244c-1.246-2.556-1.974-5.561-1.974-8.737s0.728-6.18 2.027-8.857l-0.053 0.121 24.381-59.327c2.538-5.659 7.151-10.007 12.846-12.139l0.157-0.052 113.371-37.79zM512 597.537c-82.587 0-149.537-66.95-149.537-149.537s66.95-149.537 149.537-149.537c82.587 0 149.537 66.95 149.537 149.537v0c0 82.587-66.95 149.537-149.537 149.537v0zM512 341.13c-59.023 0-106.87 47.847-106.87 106.87s47.847 106.87 106.87 106.87c59.023 0 106.87-47.847 106.87-106.87v0c0-59.023-47.847-106.87-106.87-106.87v0z" />
<glyph unicode="&#xe952;" glyph-name="Inter_Show" horiz-adv-x="1312" d="M1248.305 457.752c-0.084 0.366-0.132 0.787-0.132 1.219s0.048 0.853 0.139 1.257l-0.007-0.038c-2.306 7.628-6.228 14.176-11.391 19.518l0.013-0.013-34.946 36.978c-90.616 103.213-301.511 309.232-543.289 309.232h-12.597c-243.81 0-452.673-206.019-543.289-309.232l-34.946-36.978c-5.004-5.411-8.898-11.927-11.272-19.134l-0.106-0.371v-15.035c0.314-11.514 4.896-21.9 12.212-29.687l-0.022 0.024 18.286-19.505 34.946-37.384 10.565-10.565c101.587-108.902 296.229-279.568 516.063-279.568h10.159c220.241 0 414.476 170.667 516.063 279.568 3.855 3.253 7.312 6.71 10.459 10.437l0.106 0.129c12.19 12.19 23.975 24.787 35.759 37.384l17.879 19.505c7.264 7.821 11.934 18.141 12.591 29.536l0.006 0.127v3.657zM657.067 287.898h-10.971c-85.103 4.418-152.434 74.499-152.434 160.305s67.331 155.887 152.042 160.289l0.392 0.016h10.971c85.103-4.418 152.434-74.499 152.434-160.305s-67.331-155.887-152.042-160.289l-0.392-0.016z" />
<glyph unicode="&#xe953;" glyph-name="Inter_Social_Filled" d="M792.381 370.387c-14.51 5.084-31.238 8.021-48.652 8.021-38.62 0-73.867-14.445-100.633-38.226l0.155 0.135c-2.032 0-2.844 0-4.47 0l-47.543 23.568-167.416 81.27c0 2.032 0 4.47 0 7.314l226.337 118.248h2.844c24.557-17.961 55.355-28.738 88.67-28.738 51.034 0 96.162 25.291 123.533 64.023l0.318 0.474c16.672 23.396 26.654 52.562 26.654 84.061 0 9.067-0.827 17.94-2.41 26.55l0.137-0.896c-7.815 42.486-32.388 78.113-66.468 100.418l-0.58 0.356c-22.491 15.428-50.299 24.639-80.258 24.639-11.162 0-22.026-1.279-32.453-3.697l0.965 0.189c-68.068-14.935-118.262-74.721-118.262-146.23 0-0.734 0.005-1.467 0.016-2.199l-0.001 0.111v-4.063c-60.952-32.914-121.905-65.016-183.263-97.117l-32.102-16.66c-25.296 22.81-58.965 36.764-95.893 36.764-13.448 0-26.463-1.851-38.806-5.311l1.010 0.242c-58.402-12.405-103.061-59.256-112.052-117.859l-0.1-0.795c-1.97-8.863-3.099-19.043-3.099-29.486 0-50.064 25.942-94.069 65.117-119.306l0.56-0.338c23.239-17.001 52.387-27.204 83.917-27.204 29.268 0 56.482 8.79 79.148 23.875l-0.525-0.329c5.283 2.844 5.689 2.438 9.346 0 63.39-32.102 135.721-68.267 207.644-102.4 13.35-4.476 22.984-16.436 23.969-30.774l0.006-0.108c6.365-38.33 27.512-70.802 57.269-91.949l0.432-0.292c24.159-17.281 54.303-27.632 86.864-27.632 0.033 0 0.067 0 0.1 0h-0.005c0.707-0.013 1.541-0.020 2.377-0.020 8.492 0 16.809 0.746 24.891 2.177l-0.855-0.125c41.058 8.551 75.358 32.622 97.169 65.663l0.355 0.572c16.105 22.825 25.741 51.218 25.741 81.861 0 9.565-0.939 18.911-2.729 27.95l0.15-0.909c-10.102 53.215-47.122 95.897-96.074 113.849l-1.044 0.335z" />
<glyph unicode="&#xe954;" glyph-name="Inter_Social_Image" d="M64.203 895.797v-893.968h893.968v893.968zM145.473 83.098v731.429h731.429v-350.679l-134.095 133.689-514.438-516.063zM343.365 83.098l401.067 401.067 129.625-129.625v-271.441zM327.111 724.724c-67.326 0-121.905-54.579-121.905-121.905s54.579-121.905 121.905-121.905c67.326 0 121.905 54.579 121.905 121.905v0c0 67.326-54.579 121.905-121.905 121.905v0zM327.111 562.184c-22.442 0-40.635 18.193-40.635 40.635s18.193 40.635 40.635 40.635c22.442 0 40.635-18.193 40.635-40.635v0c0.005-0.242 0.008-0.527 0.008-0.813 0-22.442-18.193-40.635-40.635-40.635-0.003 0-0.006 0-0.009 0v0z" />
<glyph unicode="&#xe955;" glyph-name="Inter_Social_Poll" d="M796.851 848.254v95.086h-81.27v-95.086h-406.349v95.086h-81.27v-95.086h-162.54v-893.968h893.968v893.968zM227.962 766.984v-43.479h81.27v43.479h406.349v-43.479h81.27v43.479h81.27v-132.063h-731.429v132.063zM146.692 35.556v518.095h731.429v-519.721z" />
<glyph unicode="&#xe956;" glyph-name="Inter_Social_Schedule" d="M683.073 652.394v-615.213h225.117v615.213zM840.737 104.229h-90.21v480.711h90.21zM398.629 37.181h224.711v821.638h-224.711zM465.676 791.771h90.616v-687.543h-90.616zM115.81 37.181h225.117v444.546h-225.117zM183.263 414.273h90.21v-310.044h-90.21z" />
<glyph unicode="&#xe957;" glyph-name="Inter_Social_Storage" horiz-adv-x="1523" d="M760.686 0.203h-459.175c-3.371-0.157-7.323-0.246-11.296-0.246-143.405 0-259.657 116.252-259.657 259.657 0 137.371 106.676 249.827 241.707 259.046l0.802 0.044c7.48 0.589 16.196 0.925 24.99 0.925s17.51-0.336 26.136-0.995l-1.145 0.070c4.47 12.19 9.346 24.381 14.629 36.165 41.239 91.221 131.439 153.55 236.196 153.55 21.595 0 42.572-2.649 62.623-7.639l-1.778 0.375c35.549 65.942 88.006 118.791 151.646 153.833l1.954 0.986c46.973 25.021 102.722 39.715 161.903 39.715 61.307 0 118.931-15.769 169.038-43.472l-1.799 0.912c100.395-53.487 170.419-152.491 182.728-268.718l0.129-1.504c0.866-11.007 1.359-23.833 1.359-36.775s-0.493-25.767-1.463-38.46l0.103 1.686 14.222-4.876c103.325-35.402 176.277-131.696 176.277-245.030 0-142.418-115.199-257.93-257.498-258.436h-0.048q-167.416 0-336.051 0h-136.533zM290.133 437.841h-12.19c-92.211-7.594-164.17-84.303-164.17-177.82 0-98.521 79.867-178.387 178.387-178.387 3.289 0 6.558 0.089 9.803 0.265l-0.452-0.020h598.959q168.229 0 335.644 0c86.274 0.783 157.695 63.397 172.138 145.633l0.154 1.059c1.454 8.557 2.286 18.413 2.286 28.464 0 78.106-50.198 144.489-120.092 168.645l-1.254 0.377-70.298 26.006 2.032 40.635c0.971 12.164 1.524 26.335 1.524 40.635s-0.553 28.472-1.64 42.494l0.116-1.859c-9.879 90.035-63.654 165.639-139.165 205.732l-1.432 0.694c-37.134 20.725-81.468 32.929-128.652 32.929-45.367 0-88.1-11.282-125.545-31.193l1.447 0.702c-55.441-30.916-99.199-77.028-126.397-132.709l-0.791-1.793c-2.438-4.876-5.283-10.565-7.721-14.629l-13.816-23.162-28.851 4.47-19.505 3.251-11.378 2.032c-13.864 3.888-29.785 6.123-46.227 6.123-71.577 0-133.262-42.348-161.368-103.356l-0.455-1.103c-7.002-15.682-14.325-35.501-20.511-55.816l-1.026-3.918-9.752-32.508-32.914 2.032c-21.943 4.063-39.010 6.095-56.889 6.095z" />
</font>
</defs>
</svg>
